<svg xml:space="preserve" viewBox="0 0 850.39 368.5" height="368.5px" width="850.39px" y="0px" x="0px" xmlns:xlink="http://www.w3.org/1999/xlink" xmlns="http://www.w3.org/2000/svg" id="图层_1" version="1.1">
<g>
	<g>
		<path d="M754.6,283.925c-0.351-0.431-0.501-0.923-0.449-1.475
			c0.055-0.548,0.296-0.997,0.725-1.351c0.431-0.352,0.923-0.502,1.475-0.449c0.547,0.055,0.996,0.296,1.351,0.725l3.3,3.95
			c0.352,0.431,0.501,0.923,0.45,1.475c-0.055,0.548-0.297,0.997-0.726,1.351c-0.431,0.352-0.922,0.502-1.475,0.449
			c-0.546-0.055-0.996-0.297-1.35-0.725L754.6,283.925z M749.65,279.55c0.451-0.33,0.951-0.455,1.5-0.375
			c0.541,0.086,0.975,0.353,1.3,0.8c0.331,0.443,0.456,0.935,0.375,1.476c-0.079,0.54-0.337,0.974-0.775,1.3l-4.25,3.1
			c-0.452,0.33-0.952,0.455-1.5,0.375c-0.541-0.086-0.975-0.352-1.3-0.8c-0.331-0.442-0.456-0.934-0.375-1.475
			c0.078-0.541,0.337-0.974,0.775-1.3L749.65,279.55z M742.625,271.8c-0.071-0.546,0.063-1.038,0.4-1.475
			c0.338-0.435,0.779-0.685,1.324-0.75c0.546-0.07,1.038,0.063,1.476,0.399l5.85,4.5c0.434,0.34,0.684,0.781,0.75,1.325
			c0.071,0.546-0.063,1.038-0.399,1.476c-0.339,0.434-0.78,0.684-1.325,0.75c-0.546,0.069-1.038-0.064-1.476-0.4l-5.85-4.5
			C742.941,272.785,742.691,272.344,742.625,271.8z M756.3,266.075c0.547,0.105,0.98,0.39,1.3,0.85
			c0.315,0.456,0.424,0.956,0.325,1.5l-1,5.45c-0.106,0.537-0.39,0.963-0.85,1.275c-0.449,0.314-0.94,0.424-1.476,0.324
			c-0.547-0.105-0.979-0.389-1.3-0.85c-0.315-0.456-0.424-0.956-0.325-1.5l1-5.45c0.106-0.537,0.39-0.962,0.851-1.274
			C755.273,266.084,755.766,265.977,756.3,266.075z M815.475,338.625l0.051,0.025c3.1,1.033,6.216,2.066,9.35,3.1
			c0.521,0.174,0.904,0.508,1.15,1c0.253,0.494,0.295,1.002,0.125,1.525c-0.174,0.52-0.508,0.902-1,1.149
			c-0.496,0.253-1.004,0.294-1.525,0.125c-3.134-1.033-6.25-2.066-9.35-3.1l0.05,0.024c-0.784-0.241-1.534-0.482-2.25-0.725
			c-0.521-0.174-0.903-0.508-1.15-1c-0.253-0.494-0.295-1.003-0.125-1.525c0.174-0.52,0.507-0.903,1-1.149
			c0.494-0.253,1.003-0.295,1.525-0.125C814.009,338.175,814.726,338.4,815.475,338.625z M767.275,327.95
			c-0.277-0.481-0.344-0.99-0.2-1.525c0.14-0.526,0.448-0.927,0.925-1.2c0.474-0.275,0.974-0.343,1.5-0.199
			c12,3.174,23.75,6.582,35.25,10.225c0.527,0.164,0.919,0.489,1.175,0.975c0.253,0.492,0.295,1,0.125,1.525
			c-0.163,0.526-0.488,0.918-0.975,1.175c-0.492,0.253-1.001,0.294-1.525,0.125c-11.434-3.624-23.117-7.017-35.05-10.175
			C767.965,328.734,767.556,328.426,767.275,327.95z M764.025,274.325c0.478,0.284,0.786,0.692,0.925,1.225
			c0.135,0.538,0.06,1.046-0.226,1.525c-0.291,0.478-0.707,0.786-1.25,0.925l-3.55,0.95c-0.528,0.134-1.028,0.06-1.5-0.226
			c-0.478-0.283-0.786-0.691-0.925-1.225c-0.135-0.538-0.06-1.046,0.225-1.525c0.292-0.477,0.708-0.785,1.25-0.925l3.551-0.95
			C763.054,273.966,763.554,274.041,764.025,274.325z M592.075,347.25c0.384-0.395,0.851-0.594,1.399-0.6
			c0.551-0.006,1.025,0.186,1.426,0.574l3.75,3.65c0.393,0.385,0.593,0.852,0.6,1.4c0.005,0.551-0.187,1.026-0.575,1.425
			c-0.384,0.394-0.851,0.594-1.399,0.6c-0.551,0.005-1.025-0.187-1.426-0.575l-3.75-3.649c-0.393-0.385-0.593-0.852-0.6-1.4
			C591.495,348.123,591.687,347.648,592.075,347.25z M580.25,353.6c-0.556,0.004-1.031-0.188-1.425-0.574
			c-0.388-0.395-0.579-0.869-0.575-1.426c-0.004-0.556,0.188-1.031,0.575-1.425l3.8-3.75c0.395-0.387,0.869-0.579,1.425-0.575
			c0.556-0.004,1.031,0.188,1.425,0.575c0.387,0.394,0.579,0.869,0.575,1.425c0.004,0.557-0.188,1.031-0.575,1.426l-3.8,3.75
			C581.281,353.412,580.806,353.604,580.25,353.6z M577.8,334.825c0.006-0.55,0.206-1.017,0.601-1.4
			c0.398-0.388,0.873-0.58,1.425-0.575c0.556,0.006,1.031,0.206,1.425,0.601l2.9,2.95c0.379,0.398,0.562,0.873,0.55,1.425
			c-0.006,0.549-0.206,1.016-0.601,1.399c-0.398,0.389-0.873,0.58-1.425,0.575c-0.556-0.006-1.031-0.206-1.425-0.6l-2.9-2.95
			C577.971,335.852,577.788,335.377,577.8,334.825z M595.65,334.2c0.551-0.015,1.025,0.169,1.425,0.55
			c0.402,0.383,0.61,0.85,0.625,1.4c0.014,0.557-0.17,1.04-0.55,1.449l-2.851,2.851c-0.384,0.392-0.851,0.593-1.399,0.6
			c-0.551,0.015-1.026-0.169-1.426-0.55c-0.402-0.383-0.61-0.85-0.625-1.4c-0.014-0.557,0.17-1.041,0.551-1.449l2.85-2.851
			C594.634,334.408,595.1,334.207,595.65,334.2z M596.25,297.2c-0.345-0.434-0.486-0.925-0.425-1.476
			c0.056-0.541,0.298-0.982,0.725-1.324c0.434-0.354,0.925-0.503,1.476-0.45c56.365,6.044,108.939,15.21,157.725,27.5
			c0.533,0.14,0.941,0.447,1.225,0.925c0.285,0.479,0.36,0.987,0.226,1.525c-0.139,0.533-0.447,0.941-0.925,1.225
			c-0.479,0.284-0.987,0.359-1.525,0.225c-48.615-12.244-101.007-21.377-157.175-27.399
			C597.033,297.885,596.592,297.635,596.25,297.2z M668.8,343.825c-0.054,0.546-0.296,0.997-0.725,1.35
			c-0.422,0.36-0.905,0.519-1.45,0.476c-0.545-0.055-0.995-0.297-1.35-0.726l-3.45-4.2c-0.359-0.422-0.519-0.904-0.476-1.449
			c0.055-0.547,0.296-0.997,0.726-1.351c0.422-0.36,0.905-0.519,1.45-0.475c0.545,0.054,0.995,0.296,1.35,0.725l3.45,4.2
			C668.685,342.797,668.843,343.28,668.8,343.825z M656.35,339.425c-0.139,0.532-0.447,0.94-0.925,1.226l-5.35,3.199
			c-0.471,0.293-0.971,0.376-1.5,0.25c-0.532-0.138-0.94-0.446-1.226-0.925c-0.293-0.47-0.376-0.97-0.25-1.5
			c0.14-0.531,0.447-0.94,0.926-1.225l5.35-3.2c0.471-0.293,0.971-0.376,1.5-0.25c0.532,0.139,0.94,0.446,1.225,0.925
			C656.393,338.395,656.477,338.895,656.35,339.425z M652,322.825c0.473-0.276,0.973-0.344,1.5-0.2
			c0.534,0.133,0.942,0.434,1.225,0.9l3.051,5.1c0.276,0.482,0.343,0.99,0.199,1.525c-0.14,0.534-0.447,0.942-0.925,1.225
			c-0.472,0.276-0.972,0.344-1.5,0.2c-0.534-0.134-0.942-0.433-1.225-0.9l-3.05-5.1c-0.277-0.482-0.344-0.991-0.2-1.525
			C651.215,323.516,651.523,323.107,652,322.825z M666.775,327.25c0.449-0.314,0.94-0.424,1.475-0.325
			c0.547,0.106,0.98,0.39,1.3,0.851c0.315,0.448,0.424,0.939,0.325,1.475c-0.106,0.546-0.39,0.979-0.85,1.3l-4.2,2.95
			c-0.45,0.314-0.941,0.424-1.476,0.325c-0.546-0.106-0.979-0.39-1.3-0.851c-0.315-0.448-0.424-0.939-0.325-1.475
			c0.107-0.546,0.391-0.979,0.851-1.3L666.775,327.25z M670.325,253.825c0.394-0.388,0.869-0.579,1.425-0.575
			c0.556-0.004,1.031,0.188,1.425,0.575c0.387,0.394,0.579,0.868,0.575,1.425v8.9h8.85c0.557-0.004,1.031,0.188,1.426,0.574
			c0.387,0.395,0.578,0.869,0.574,1.426c0.004,0.556-0.188,1.03-0.574,1.425c-0.395,0.387-0.869,0.578-1.426,0.575h-8.85v8.899
			c0.004,0.556-0.188,1.031-0.575,1.425c-0.394,0.387-0.869,0.579-1.425,0.575c-0.556,0.004-1.031-0.188-1.425-0.575
			c-0.388-0.394-0.579-0.869-0.575-1.425v-8.899h-8.9c-0.556,0.003-1.03-0.188-1.425-0.575c-0.387-0.395-0.578-0.869-0.575-1.425
			c-0.003-0.557,0.188-1.031,0.575-1.426c0.395-0.387,0.869-0.578,1.425-0.574h8.9v-8.9
			C669.746,254.693,669.938,254.219,670.325,253.825z M663.55,79.6c0.161,0.815,0.012,1.574-0.45,2.275l-3.199,4.75
			c-0.46,0.686-1.093,1.111-1.9,1.275c-0.81,0.162-1.56,0.012-2.25-0.45c-0.696-0.459-1.13-1.092-1.3-1.9
			c-0.162-0.815-0.012-1.574,0.45-2.275l3.199-4.75c0.46-0.686,1.093-1.111,1.9-1.275c0.81-0.162,1.56-0.012,2.25,0.45
			C662.946,78.159,663.38,78.792,663.55,79.6z M715.4,228.15c-0.003,2.974,1.047,5.498,3.149,7.574
			c2.141,2.111,4.674,3.17,7.601,3.176c2.91-0.002,5.402-1.051,7.475-3.15l0.025-0.025c2.103-2.076,3.152-4.601,3.149-7.574
			c-0.001-2.912-1.051-5.403-3.149-7.476l-0.025-0.024c-2.072-2.1-4.564-3.149-7.475-3.15c-2.927,0.006-5.46,1.064-7.601,3.175
			C716.451,222.747,715.4,225.238,715.4,228.15z M715.75,238.575c-2.897-2.858-4.348-6.333-4.35-10.425
			c-0.002-4.022,1.448-7.465,4.35-10.325c2.927-2.89,6.393-4.331,10.4-4.325c4.01-0.001,7.443,1.44,10.3,4.325l0.024,0.024
			c2.885,2.856,4.326,6.29,4.325,10.301c-0.003,4.08-1.444,7.547-4.325,10.399l-0.024,0.025c-2.856,2.884-6.29,4.326-10.3,4.325
			C722.143,242.906,718.677,241.464,715.75,238.575z M685.525,181.475c0.387,0.394,0.578,0.869,0.574,1.425
			c0.004,0.556-0.188,1.031-0.574,1.425c-0.395,0.387-0.869,0.578-1.426,0.575H676.2v7.9c0.003,0.556-0.188,1.031-0.575,1.425
			c-0.395,0.387-0.869,0.579-1.425,0.575c-0.556,0.004-1.031-0.188-1.425-0.575c-0.388-0.394-0.579-0.869-0.575-1.425v-7.9h-7.851
			c-0.556,0.003-1.03-0.188-1.425-0.575c-0.387-0.395-0.578-0.869-0.575-1.425c-0.003-0.556,0.188-1.031,0.575-1.425
			c0.395-0.387,0.869-0.579,1.425-0.575h7.851V173c-0.004-0.556,0.188-1.031,0.575-1.425c0.394-0.387,0.869-0.579,1.425-0.575
			c0.556-0.004,1.03,0.188,1.425,0.575c0.387,0.394,0.578,0.869,0.575,1.425v7.9h7.899
			C684.656,180.896,685.131,181.088,685.525,181.475z M455.725,336c1.749,1.717,2.624,3.816,2.625,6.3
			c0.008,2.452-0.867,4.562-2.625,6.325c-1.723,1.715-3.83,2.574-6.324,2.575c-2.393,0.007-4.484-0.843-6.275-2.55
			c-0.016-0.018-0.032-0.035-0.05-0.051c-1.716-1.757-2.574-3.857-2.575-6.3c0.001-2.494,0.859-4.603,2.575-6.325h0.024
			c1.799-1.757,3.898-2.632,6.301-2.625c2.483,0.002,4.583,0.877,6.3,2.625L455.725,336z M449.4,347.2
			c1.372,0.001,2.53-0.474,3.475-1.425c0.977-0.97,1.468-2.128,1.475-3.476c0.002-1.371-0.481-2.529-1.449-3.475l-0.025-0.025
			c-0.945-0.968-2.104-1.451-3.475-1.45c-1.332,0.008-2.499,0.499-3.5,1.476h0.024c-0.951,0.944-1.426,2.103-1.425,3.475
			c-0.001,1.334,0.457,2.483,1.375,3.45c0.017,0.017,0.033,0.033,0.05,0.05C446.923,346.727,448.081,347.193,449.4,347.2z
			 M511.275,287.85c0.374,0.414,0.549,0.897,0.524,1.45c-0.025,0.548-0.242,1.006-0.649,1.375c-0.415,0.374-0.898,0.549-1.45,0.525
			c-16.542-0.8-33.384-1.351-50.525-1.65c-0.56-0.015-1.034-0.224-1.425-0.625c-0.381-0.399-0.563-0.874-0.55-1.425
			c0.015-0.55,0.223-1.017,0.625-1.4c0.392-0.38,0.858-0.563,1.399-0.55c17.192,0.3,34.084,0.851,50.676,1.65
			C510.448,287.227,510.906,287.442,511.275,287.85z M199.225,335.1c-0.48-0.271-0.798-0.67-0.949-1.199
			c-0.152-0.532-0.095-1.04,0.175-1.525c0.27-0.482,0.67-0.799,1.2-0.95s1.038-0.093,1.524,0.175l5.15,2.9
			c0.48,0.271,0.798,0.671,0.95,1.2c0.152,0.531,0.094,1.04-0.176,1.524c-0.27,0.482-0.67,0.799-1.199,0.95
			c-0.53,0.152-1.039,0.094-1.525-0.175L199.225,335.1z M205.925,321.075c0.36,0.421,0.519,0.903,0.476,1.45
			c-0.048,0.545-0.28,0.995-0.7,1.35l-3.851,3.35c-0.43,0.36-0.922,0.519-1.475,0.476c-0.546-0.054-0.996-0.296-1.35-0.726
			c-0.36-0.42-0.519-0.903-0.476-1.449c0.047-0.546,0.28-0.996,0.7-1.351l3.85-3.35c0.431-0.36,0.923-0.519,1.476-0.476
			C205.121,320.404,205.57,320.646,205.925,321.075z M335.65,342.675c-0.518-0.195-0.893-0.545-1.125-1.05
			c-0.229-0.502-0.246-1.01-0.051-1.525c0.196-0.517,0.547-0.892,1.051-1.125l7.149-3.35c0.503-0.229,1.012-0.245,1.525-0.05
			c0.518,0.195,0.893,0.545,1.125,1.05c0.229,0.502,0.245,1.01,0.05,1.525c-0.196,0.517-0.546,0.892-1.05,1.125l-7.15,3.35
			C336.672,342.854,336.164,342.87,335.65,342.675z M330.325,347.125c0.231-0.504,0.606-0.854,1.125-1.05
			c0.514-0.196,1.022-0.179,1.524,0.05c0.504,0.232,0.854,0.607,1.051,1.125l2.8,7.35c0.195,0.515,0.179,1.023-0.05,1.525
			c-0.232,0.504-0.607,0.854-1.125,1.05c-0.515,0.195-1.022,0.179-1.525-0.05c-0.504-0.232-0.854-0.607-1.05-1.125l-2.8-7.35
			C330.08,348.135,330.097,347.627,330.325,347.125z M327.975,335.125c-0.387-0.395-0.578-0.869-0.574-1.425v-5.55
			c-0.004-0.557,0.188-1.031,0.574-1.426c0.395-0.387,0.869-0.578,1.426-0.574c0.556-0.004,1.03,0.188,1.425,0.574
			c0.387,0.395,0.578,0.869,0.575,1.426v5.55c0.003,0.556-0.188,1.03-0.575,1.425c-0.395,0.387-0.869,0.578-1.425,0.575
			C328.844,335.703,328.369,335.512,327.975,335.125z M313,335.9c-0.179-0.52-0.146-1.028,0.1-1.525
			c0.245-0.5,0.628-0.842,1.15-1.025c0.518-0.178,1.026-0.145,1.525,0.101l7.649,3.7c0.498,0.244,0.84,0.627,1.025,1.149
			c0.178,0.52,0.145,1.028-0.101,1.525c-0.244,0.499-0.627,0.841-1.149,1.024c-0.519,0.179-1.026,0.146-1.525-0.1l-7.649-3.7
			C313.527,336.805,313.186,336.422,313,335.9z M315.325,355.275c-0.538-0.076-0.972-0.334-1.3-0.775
			c-0.339-0.438-0.472-0.931-0.4-1.475c0.068-0.546,0.318-0.988,0.75-1.325l8.9-6.75c0.447-0.329,0.947-0.454,1.5-0.375
			c0.538,0.075,0.971,0.333,1.3,0.774c0.338,0.439,0.472,0.931,0.399,1.476c-0.067,0.546-0.317,0.987-0.75,1.325l-8.899,6.75
			C316.377,355.229,315.877,355.354,315.325,355.275z M318.725,291.7c-0.415-0.368-0.64-0.826-0.675-1.375
			c-0.033-0.552,0.134-1.034,0.5-1.45c0.368-0.415,0.826-0.641,1.375-0.675c16.858-1.001,34.017-1.751,51.476-2.25
			c0.549-0.015,1.023,0.169,1.425,0.55c0.401,0.382,0.609,0.849,0.625,1.4c0.015,0.549-0.169,1.023-0.55,1.425
			c-0.382,0.401-0.849,0.609-1.4,0.625c-17.408,0.5-34.517,1.25-51.325,2.25C319.624,292.232,319.141,292.066,318.725,291.7z
			 M490.7,37.175c0.816-0.098,1.55,0.111,2.2,0.625c0.651,0.514,1.026,1.18,1.125,2c0.096,0.816-0.112,1.549-0.625,2.2l-19.45,24.95
			c-0.515,0.65-1.182,1.025-2,1.125c-0.816,0.098-1.55-0.111-2.2-0.625c-0.651-0.513-1.026-1.18-1.125-2
			c-0.096-0.816,0.112-1.549,0.625-2.2L488.7,38.3C489.215,37.649,489.881,37.274,490.7,37.175z M501.55,59.525
			c0.81,0.163,1.442,0.587,1.9,1.275c0.454,0.692,0.596,1.442,0.425,2.25c-0.164,0.808-0.589,1.441-1.275,1.9L482.7,78.05
			c-0.693,0.453-1.443,0.595-2.25,0.425c-0.81-0.163-1.442-0.587-1.9-1.275c-0.454-0.692-0.596-1.442-0.425-2.25
			c0.164-0.808,0.589-1.441,1.275-1.9l19.899-13.1C499.993,59.497,500.743,59.355,501.55,59.525z M463.35,35.125
			c0.801,0.193,1.417,0.643,1.851,1.35c0.438,0.71,0.563,1.469,0.375,2.275l-5.101,21.5c-0.193,0.801-0.644,1.417-1.35,1.85
			c-0.71,0.439-1.469,0.564-2.275,0.375c-0.8-0.193-1.416-0.643-1.85-1.35c-0.438-0.71-0.563-1.469-0.375-2.275l5.1-21.5
			c0.194-0.801,0.645-1.417,1.351-1.85C461.785,35.061,462.543,34.936,463.35,35.125z M220.225,56.6
			c0.724,0.405,1.199,1.005,1.426,1.8l0.449,1.8c0.215,0.793,0.115,1.551-0.3,2.275c-0.406,0.724-1.007,1.199-1.8,1.425
			c-0.794,0.216-1.553,0.116-2.275-0.3c-0.723-0.405-1.198-1.005-1.425-1.8l-0.45-1.8c-0.214-0.793-0.114-1.551,0.301-2.275
			c0.406-0.725,1.006-1.2,1.8-1.425C218.744,56.084,219.503,56.185,220.225,56.6z M218.5,36.9v-0.025
			c-0.385-1.433-1.243-2.507-2.575-3.225c-0.038-0.025-0.08-0.05-0.125-0.075c-1.272-0.768-2.631-0.959-4.075-0.575
			c-1.44,0.384-2.565,1.218-3.375,2.5c-0.665,1.275-0.831,2.642-0.5,4.1c0.178,0.486,0.311,0.953,0.4,1.4
			c0.161,0.809,0.011,1.559-0.45,2.25c-0.459,0.697-1.092,1.13-1.899,1.3c-0.81,0.162-1.56,0.012-2.25-0.45
			c-0.696-0.458-1.13-1.091-1.301-1.9c-0.039-0.199-0.098-0.407-0.175-0.625c-0.027-0.092-0.053-0.184-0.075-0.275
			c-0.804-3.068-0.487-5.935,0.95-8.6c0.024-0.038,0.05-0.08,0.075-0.125c1.653-2.78,4.004-4.572,7.05-5.375
			c3.043-0.804,5.909-0.42,8.601,1.15c0.043,0.023,0.084,0.048,0.125,0.075c2.797,1.546,4.597,3.846,5.399,6.9V35.3
			c0.85,3.088,0.441,6.021-1.225,8.8c-0.023,0.042-0.049,0.084-0.075,0.125c-0.955,1.693-2.222,3.01-3.8,3.95l0.024-0.025
			c-0.1,0.063-0.199,0.121-0.3,0.175l0.825,3.15c0.207,0.801,0.099,1.559-0.325,2.275c-0.419,0.719-1.027,1.186-1.825,1.4
			c-0.791,0.207-1.541,0.099-2.25-0.325c-0.719-0.412-1.186-1.012-1.399-1.8l-1.5-5.7c-0.144-0.522-0.144-1.048,0-1.575
			c0.152-0.523,0.427-0.974,0.825-1.35c0.393-0.384,0.851-0.642,1.375-0.775c0.516-0.121,0.99-0.313,1.425-0.575l0.024-0.025
			c0.716-0.437,1.291-1.044,1.726-1.825c0.024-0.038,0.049-0.079,0.075-0.125C218.704,39.757,218.904,38.366,218.5,36.9z
			 M682.025,45.15c0.812-0.153,1.562,0.005,2.25,0.475c0.689,0.461,1.114,1.094,1.274,1.9c0.151,0.811-0.007,1.561-0.475,2.25
			l-14.65,21.55c-0.462,0.689-1.096,1.114-1.899,1.275c-0.813,0.153-1.563-0.005-2.25-0.475c-0.69-0.461-1.115-1.094-1.275-1.9
			c-0.151-0.811,0.007-1.561,0.475-2.25l14.65-21.55C680.588,45.736,681.221,45.311,682.025,45.15z M78.95,328.475
			c-0.477-0.272-0.785-0.673-0.925-1.199c-0.144-0.535-0.077-1.044,0.199-1.525c0.274-0.477,0.674-0.784,1.2-0.925
			c61.406-16.401,129.006-27.71,202.8-33.925c0.546-0.043,1.029,0.115,1.45,0.475c0.43,0.354,0.672,0.805,0.726,1.35
			c0.043,0.547-0.115,1.029-0.476,1.45c-0.354,0.429-0.804,0.671-1.35,0.726c-73.539,6.184-140.906,17.442-202.101,33.774
			C79.939,328.818,79.431,328.752,78.95,328.475z M64.6,332.525c-0.27,0.481-0.669,0.798-1.199,0.949
			c-6.908,1.959-13.767,4.034-20.575,6.226c-0.524,0.169-1.032,0.128-1.525-0.125c-0.494-0.248-0.827-0.632-1-1.15
			c-0.169-0.524-0.128-1.032,0.125-1.524c0.248-0.494,0.631-0.828,1.15-1c6.858-2.209,13.767-4.301,20.725-6.275
			c0.531-0.152,1.039-0.094,1.525,0.175c0.482,0.271,0.799,0.671,0.95,1.2C64.928,331.531,64.869,332.04,64.6,332.525z
			 M68.675,296.85c-0.552,0.006-1.026-0.186-1.425-0.574c-0.395-0.385-0.595-0.852-0.6-1.4c-0.006-0.551,0.187-1.025,0.574-1.425
			l3.75-3.75c0.385-0.394,0.852-0.593,1.4-0.601c0.552-0.005,1.026,0.188,1.425,0.575c0.395,0.385,0.595,0.852,0.601,1.4
			c0.005,0.55-0.188,1.024-0.575,1.425l-3.75,3.75C69.69,296.643,69.224,296.843,68.675,296.85z M66.15,278.075
			c0.005-0.55,0.205-1.017,0.6-1.4c0.398-0.388,0.874-0.58,1.425-0.575c0.557,0.006,1.031,0.206,1.425,0.601l2.9,2.95
			c0.379,0.398,0.563,0.873,0.55,1.425c-0.006,0.549-0.205,1.016-0.6,1.399c-0.398,0.389-0.874,0.58-1.425,0.575
			c-0.557-0.006-1.031-0.206-1.426-0.6L66.7,279.5C66.321,279.102,66.138,278.627,66.15,278.075z M87.025,296.975
			c-0.395,0.387-0.869,0.579-1.426,0.575c-0.556,0.004-1.03-0.188-1.425-0.575l-3.7-3.649c-0.387-0.395-0.578-0.869-0.574-1.425
			c-0.004-0.557,0.188-1.031,0.574-1.426c0.395-0.387,0.869-0.578,1.426-0.574c0.556-0.004,1.03,0.188,1.425,0.574l3.7,3.65
			c0.387,0.395,0.578,0.869,0.574,1.425C87.604,296.105,87.412,296.581,87.025,296.975z M81.25,284.3
			c-0.551,0.015-1.025-0.169-1.425-0.55c-0.402-0.383-0.611-0.85-0.625-1.4c-0.014-0.557,0.169-1.041,0.55-1.449l2.85-2.851
			c0.384-0.392,0.851-0.593,1.4-0.6c0.551-0.015,1.025,0.169,1.425,0.55c0.402,0.383,0.611,0.85,0.625,1.4
			c0.014,0.557-0.169,1.04-0.55,1.449l-2.85,2.851C82.267,284.092,81.8,284.293,81.25,284.3z M191.875,330.975
			c0.523,0.162,0.915,0.486,1.175,0.976c0.27,0.487,0.328,0.996,0.175,1.524c-0.162,0.523-0.487,0.916-0.975,1.176l-5.9,3.199
			c-0.489,0.27-0.997,0.328-1.524,0.176c-0.523-0.162-0.915-0.486-1.175-0.976c-0.27-0.487-0.328-0.996-0.176-1.524
			c0.163-0.523,0.488-0.916,0.976-1.176l5.899-3.199C190.84,330.881,191.348,330.822,191.875,330.975z M187.75,320.675
			c-0.366-0.417-0.533-0.9-0.5-1.45c0.035-0.55,0.26-1.008,0.675-1.375c0.417-0.367,0.9-0.533,1.45-0.5
			c0.549,0.036,1.008,0.262,1.375,0.676l3.7,4.25c0.366,0.417,0.532,0.9,0.5,1.449c-0.035,0.551-0.26,1.009-0.675,1.375
			c-0.417,0.367-0.9,0.534-1.45,0.5c-0.55-0.035-1.008-0.26-1.375-0.675L187.75,320.675z M159.6,280.525h-0.024
			c1.68-1.674,2.521-3.699,2.524-6.075c-0.007-2.315-0.849-4.307-2.524-5.976h0.024c-1.678-1.65-3.694-2.475-6.05-2.475
			c-2.328,0-4.345,0.824-6.05,2.475h0.025c-1.677,1.669-2.519,3.66-2.525,5.976c0.003,2.376,0.845,4.401,2.525,6.075H147.5
			c1.705,1.65,3.722,2.475,6.05,2.475C155.905,283,157.922,282.176,159.6,280.525z M162.425,265.625
			c2.457,2.465,3.683,5.406,3.675,8.825c0.003,3.489-1.222,6.465-3.675,8.925H162.4c-2.455,2.416-5.405,3.625-8.851,3.625
			c-3.405,0-6.355-1.209-8.85-3.625h-0.025c-2.453-2.46-3.678-5.436-3.675-8.925c-0.008-3.419,1.218-6.36,3.675-8.825h0.025
			c2.494-2.416,5.444-3.625,8.85-3.625c3.445,0,6.396,1.209,8.851,3.625H162.425z M31.35,339.15c0.516-0.17,1.016-0.128,1.5,0.125
			c0.494,0.248,0.828,0.631,1,1.149c0.17,0.524,0.129,1.032-0.125,1.525c-0.255,0.493-0.646,0.827-1.175,1
			c-2.575,0.825-5.116,1.684-7.625,2.575c-0.517,0.186-1.025,0.16-1.524-0.075s-0.84-0.61-1.025-1.125
			c-0.187-0.519-0.162-1.026,0.075-1.525c0.233-0.497,0.608-0.839,1.125-1.024C26.133,340.866,28.725,339.991,31.35,339.15z
			 M103.525,222.275c-0.388-0.395-0.579-0.869-0.575-1.426c-0.004-0.556,0.188-1.031,0.575-1.425
			c0.394-0.387,0.869-0.579,1.425-0.575h10.35V208.45c-0.004-0.556,0.188-1.031,0.575-1.425c0.395-0.388,0.869-0.579,1.425-0.575
			c0.556-0.004,1.031,0.188,1.425,0.575c0.387,0.394,0.579,0.869,0.575,1.425v10.399h10.3c0.557-0.004,1.031,0.188,1.426,0.575
			c0.387,0.394,0.578,0.869,0.574,1.425c0.004,0.557-0.188,1.031-0.574,1.426c-0.395,0.387-0.869,0.578-1.426,0.574h-10.3V233.2
			c0.004,0.556-0.188,1.03-0.575,1.425c-0.394,0.387-0.869,0.578-1.425,0.575c-0.556,0.003-1.03-0.188-1.425-0.575
			c-0.387-0.395-0.579-0.869-0.575-1.425V222.85h-10.35C104.395,222.854,103.919,222.662,103.525,222.275z M182.125,157.425
			c0.395-0.387,0.869-0.579,1.425-0.575c0.556-0.004,1.031,0.188,1.425,0.575c0.387,0.394,0.579,0.869,0.575,1.425v7.9h7.9
			c0.556-0.004,1.03,0.188,1.425,0.575c0.387,0.394,0.578,0.869,0.575,1.425c0.003,0.556-0.188,1.031-0.575,1.425
			c-0.395,0.387-0.869,0.579-1.425,0.575h-7.9v7.9c0.004,0.556-0.188,1.031-0.575,1.425c-0.394,0.387-0.869,0.578-1.425,0.575
			c-0.556,0.003-1.03-0.188-1.425-0.575c-0.387-0.395-0.579-0.869-0.575-1.425v-7.9h-7.85c-0.556,0.003-1.031-0.188-1.425-0.575
			c-0.388-0.394-0.579-0.869-0.575-1.425c-0.004-0.556,0.188-1.031,0.575-1.425c0.394-0.387,0.869-0.579,1.425-0.575h7.85v-7.9
			C181.546,158.294,181.738,157.819,182.125,157.425z M179.725,37.175c-6.464,6.591-8.905,13.107-7.324,19.55
			c1.837,6.302,7.204,10.677,16.1,13.125h-0.025c9.86,2.614,20.769,2.331,32.726-0.85c2.479-0.69,7.111-2.374,13.899-5.05
			c0.718-0.282,1.435-0.29,2.15-0.025l11.3,4.175l-2.45-9c-0.151-0.56-0.143-1.118,0.025-1.675c0.167-0.543,0.467-1.001,0.9-1.375
			c0.979-0.85,1.912-1.7,2.8-2.55c0.017-0.017,0.033-0.034,0.05-0.05c6.53-6.614,9.022-13.123,7.475-19.525
			c-1.84-6.36-7.282-10.752-16.324-13.175H241c-9.696-2.643-20.538-2.359-32.525,0.85c-11.917,3.179-21.492,8.362-28.725,15.55
			L179.725,37.175z M166.6,58.275c-2.418-8.415,0.532-16.857,8.851-25.325l0.024-0.025c7.898-7.933,18.382-13.641,31.45-17.125
			c13.146-3.523,25.038-3.807,35.675-0.85h-0.024c11.625,3.11,18.483,8.919,20.575,17.425c2.383,8.38-0.643,16.821-9.075,25.325
			c-0.019,0.014-0.035,0.031-0.05,0.05c-0.53,0.513-1.072,1.029-1.625,1.55l3.5,12.85c0.197,0.74,0.123,1.457-0.226,2.15
			c-0.342,0.686-0.867,1.169-1.575,1.45c-0.716,0.282-1.432,0.29-2.149,0.025l-15.726-5.8c-6.495,2.543-10.97,4.152-13.425,4.825
			h-0.024c-13.1,3.484-25.05,3.768-35.851,0.85H186.9C175.461,72.497,168.694,66.706,166.6,58.275z" fill="#9BA8D5" clip-rule="evenodd" fill-rule="evenodd"></path>
	</g>
	<g>
		<linearGradient y2="95.6006" x2="416.2578" y1="315.1729" x1="416.2578" gradientUnits="userSpaceOnUse" id="SVGID_1_">
			<stop style="stop-color:#478CCB" offset="0"></stop>
			<stop style="stop-color:#6AABDE" offset="1"></stop>
		</linearGradient>
		<path d="M334.9,284.15l-13,0.925l0.35,5.3
			c0.05,0.828-0.2,1.553-0.75,2.175c-0.556,0.619-1.247,0.952-2.075,1c-0.826,0.05-1.552-0.2-2.175-0.75
			c-0.618-0.557-0.952-1.248-1-2.075l-0.55-8.25c-0.048-0.815,0.202-1.532,0.75-2.149c0.545-0.623,1.229-0.965,2.05-1.025l13-0.925
			l-0.55-7.725c-0.051-0.827,0.199-1.553,0.75-2.176c0.546-0.626,1.229-0.968,2.05-1.024c0.825-0.051,1.551,0.199,2.175,0.75
			c0.626,0.547,0.968,1.23,1.025,2.05l0.75,10.7c0.05,0.822-0.2,1.548-0.75,2.175C336.404,283.75,335.722,284.092,334.9,284.15z
			 M274.9,213.025l-15.125,38.649l17.774-1.225L274.9,213.025z M274.15,198.4c0.256-0.649,0.689-1.149,1.3-1.5
			c0.61-0.354,1.261-0.479,1.95-0.375c0.688,0.11,1.271,0.428,1.75,0.949c0.48,0.519,0.747,1.127,0.8,1.825l3.8,53.75
			c0.06,0.813-0.183,1.53-0.725,2.15c-0.551,0.633-1.243,0.983-2.075,1.05l-25.5,1.75c-0.69,0.047-1.324-0.128-1.9-0.525
			c-0.576-0.398-0.968-0.932-1.175-1.6c-0.205-0.664-0.181-1.322,0.075-1.975L274.15,198.4z M292.3,100.25
			c0.047,0.007,0.097,0.016,0.15,0.025c11.234,1.54,17.134,7.215,17.7,17.025l9.149,130.226l12.976-0.926
			c0.832-0.057,1.565,0.193,2.199,0.75c0.633,0.553,0.975,1.244,1.025,2.075l0.45,6.65c0.05,0.827-0.2,1.553-0.75,2.175
			c-0.556,0.619-1.247,0.952-2.075,1c-0.827,0.051-1.552-0.199-2.175-0.75c-0.618-0.557-0.952-1.248-1-2.075l-0.25-3.6
			l-12.976,0.925c-0.825,0.062-1.55-0.18-2.175-0.725c-0.635-0.55-0.985-1.242-1.05-2.075l-9.35-133.25
			c-0.563-6.547-4.68-10.364-12.351-11.45c-8.345-0.737-13.937,2.237-16.774,8.925l0.024-0.025l-52.8,135.25l0.025-0.101
			c-0.553,1.589-0.777,3.164-0.676,4.726l1.301,18.1v0.05c0.07,1.413,0.379,2.722,0.925,3.925c0.827,1.752,2.11,3.319,3.85,4.7
			c3.402,2.304,7.077,3.319,11.025,3.05l44.05-3.05c0.824-0.05,1.549,0.2,2.175,0.75c0.625,0.546,0.967,1.229,1.025,2.05l1.399,20.4
			l29.726-2.1l-0.175-2.625c-0.06-0.822,0.183-1.548,0.725-2.176c0.543-0.633,1.227-0.983,2.05-1.05
			c0.823-0.06,1.548,0.183,2.175,0.726c0.634,0.543,0.983,1.226,1.051,2.05l0.399,5.649c0.062,0.831-0.181,1.564-0.725,2.2
			c-0.55,0.627-1.241,0.968-2.075,1.025l-35.75,2.5c-0.826,0.052-1.551-0.198-2.175-0.75c-0.627-0.545-0.969-1.229-1.025-2.05
			L280.15,288l-41.051,2.85c-5.383,0.393-10.383-1.016-15-4.225c-0.056-0.041-0.114-0.083-0.175-0.125
			c-2.527-2.02-4.377-4.318-5.55-6.9c-0.854-1.863-1.346-3.889-1.475-6.074l-1.301-18.051v-0.024
			c-0.161-2.364,0.181-4.747,1.025-7.15c0.01-0.032,0.018-0.065,0.025-0.1l52.8-135.25l0.024-0.025
			C273.235,103.479,280.844,99.254,292.3,100.25z M414.75,135.55h-0.05c-2.7,0-5,0.9-6.9,2.7h-0.05
			c-1.833,1.767-2.75,3.883-2.75,6.35v116.65c0,2.467,0.917,4.584,2.75,6.35h0.05c1.9,1.801,4.2,2.7,6.9,2.7h0.05
			c2.7,0,5-0.899,6.9-2.7v-0.05c1.866-1.733,2.8-3.833,2.8-6.3V144.6c0-2.467-0.934-4.583-2.8-6.35
			C419.75,136.45,417.45,135.55,414.75,135.55z M425.75,133.9h0.05c3.101,2.967,4.65,6.534,4.65,10.7v116.65
			c0,4.2-1.55,7.767-4.65,10.7h-0.05c-3.033,2.899-6.7,4.35-11,4.35h-0.05c-4.3,0-7.983-1.45-11.05-4.35
			c-3.101-2.934-4.65-6.5-4.65-10.7V144.6c0-4.167,1.55-7.733,4.65-10.7v-0.05c3.066-2.867,6.75-4.3,11.05-4.3h0.05
			C419.05,129.55,422.717,131,425.75,133.9z M461.65,140.2c-0.033-10.4-4.584-19.384-13.65-26.95
			c-9.233-7.767-20.316-11.65-33.25-11.65s-24.033,3.883-33.3,11.65c-9.033,7.566-13.566,16.55-13.601,26.95v126
			c0,1,0.051,2.017,0.15,3.05c0.533,6.367,2.866,12.166,7,17.4c1.833,2.266,3.967,4.434,6.4,6.5c1.033,0.833,2.1,1.616,3.199,2.35
			l0.051,0.05c8.566,5.8,18.6,8.684,30.1,8.65c11.5,0,21.55-2.884,30.15-8.65c0.666-0.5,1.416-0.667,2.25-0.5
			c0.8,0.167,1.433,0.601,1.899,1.3c0.467,0.667,0.617,1.417,0.45,2.25c-0.167,0.801-0.583,1.434-1.25,1.9
			c-9.566,6.467-20.733,9.7-33.5,9.7c-12.767-0.034-23.917-3.267-33.45-9.7c-1.233-0.8-2.45-1.684-3.649-2.65
			c-0.034-0.033-0.067-0.05-0.101-0.05c-2.8-2.366-5.217-4.833-7.25-7.399c-4.934-6.2-7.7-13.084-8.3-20.65
			c-0.1-1.166-0.15-2.35-0.15-3.55v-126c-0.033-12.2,5.217-22.717,15.75-31.55c10.367-8.7,22.75-13.05,37.15-13.05
			s26.767,4.35,37.1,13.05c10.567,8.833,15.834,19.35,15.801,31.55v115.05c0,0.834-0.283,1.55-0.851,2.15
			c-0.6,0.566-1.316,0.85-2.149,0.85c-0.834,0-1.533-0.283-2.101-0.85c-0.6-0.601-0.899-1.316-0.899-2.15V140.2z M508.4,270.9
			c0.109,6.387,2.051,12.32,5.824,17.8c1.663,2.421,3.654,4.778,5.976,7.075l-0.05-0.075c0.945,0.886,1.938,1.711,2.975,2.475
			c0.022,0.019,0.047,0.035,0.075,0.05c8.18,6.357,17.997,9.949,29.45,10.775h0.024c11.452,0.787,21.66-1.396,30.625-6.55
			c0.719-0.414,1.477-0.515,2.275-0.3s1.407,0.682,1.825,1.399c0.415,0.719,0.515,1.477,0.3,2.275
			c-0.215,0.797-0.682,1.405-1.4,1.825c-9.962,5.775-21.312,8.226-34.05,7.35h-0.025c-12.736-0.912-23.645-4.92-32.725-12.025
			c-1.201-0.89-2.352-1.848-3.45-2.875c-0.015-0.027-0.031-0.053-0.05-0.074c-2.613-2.571-4.854-5.213-6.725-7.926
			c-4.483-6.506-6.775-13.557-6.875-21.149v-0.05c-0.002-1.158,0.031-2.317,0.1-3.476V267.4l8.8-125.7
			c0.788-12.169,6.771-22.278,17.95-30.325h-0.025c10.938-7.986,23.596-11.478,37.976-10.475
			c14.382,0.986,26.406,6.194,36.075,15.625l0.024,0.025c9.899,9.516,14.417,20.349,13.55,32.5l-8.05,114.8
			c-0.066,0.833-0.417,1.525-1.05,2.075c-0.627,0.543-1.352,0.785-2.175,0.726c-0.823-0.066-1.507-0.416-2.05-1.051
			c-0.543-0.619-0.784-1.336-0.726-2.149l8.05-114.8c0.666-10.371-3.242-19.629-11.725-27.775l-0.025-0.025
			c-8.66-8.42-19.427-13.07-32.3-13.95c-12.887-0.931-24.229,2.178-34.024,9.325h-0.025c-9.555,6.886-14.704,15.511-15.45,25.875
			l-8.8,125.675c-0.063,1.024-0.098,2.049-0.1,3.074V270.9z M605.225,271.55c0.828,0.048,1.52,0.382,2.075,1
			c0.55,0.622,0.8,1.347,0.75,2.175c-0.07,1.191-0.195,2.384-0.375,3.575c-1.152,7.49-4.386,14.165-9.7,20.025
			c-0.558,0.609-1.25,0.935-2.074,0.975c-0.821,0.041-1.538-0.218-2.15-0.774c-0.62-0.559-0.953-1.25-1-2.075
			c-0.041-0.827,0.218-1.553,0.775-2.175c4.484-4.94,7.219-10.565,8.199-16.875c0.154-1.009,0.263-2.018,0.325-3.025
			c0.049-0.826,0.382-1.519,1-2.075C603.674,271.75,604.398,271.5,605.225,271.55z M553.75,135.45l0.025-0.025
			c3.296-2.598,7.037-3.756,11.225-3.475c4.227,0.29,7.776,1.973,10.65,5.05l-0.051-0.025c2.632,2.708,3.832,5.859,3.601,9.45v0.025
			l-8.8,125.7v0.05c-0.134,1.507-0.484,2.907-1.051,4.2c-0.023,0.045-0.048,0.094-0.074,0.149c-0.84,1.702-2.064,3.21-3.676,4.525
			c-0.072,0.058-0.147,0.116-0.225,0.175c-3.174,2.148-6.832,3.082-10.975,2.8c-4.143-0.28-7.66-1.714-10.551-4.3
			c-0.047-0.049-0.098-0.099-0.149-0.15c-1.527-1.573-2.568-3.281-3.125-5.125v0.025c-0.443-1.418-0.602-2.901-0.476-4.45
			l8.801-125.7C549.11,140.744,550.728,137.777,553.75,135.45z M554.9,144.725v0.025l-8.801,125.7v0.05
			c-0.068,0.766,0.006,1.5,0.226,2.2v0.024c0.291,0.898,0.799,1.74,1.524,2.525c1.909,1.681,4.227,2.614,6.95,2.8
			c2.692,0.183,5.076-0.401,7.15-1.75c0.804-0.684,1.438-1.45,1.899-2.3c0.301-0.708,0.484-1.475,0.551-2.3l8.8-125.65
			c0.096-1.865-0.538-3.507-1.9-4.925l-0.05-0.025c-1.793-1.923-4.01-2.973-6.65-3.15c-2.668-0.185-5.051,0.548-7.149,2.2
			l-0.025,0.025C555.871,141.37,555.029,142.887,554.9,144.725z M467.55,269.7v0.05c-0.633,7.566-3.417,14.45-8.35,20.65
			c-0.5,0.633-1.167,1-2,1.1c-0.833,0.066-1.567-0.15-2.2-0.65c-0.667-0.5-1.033-1.166-1.1-2c-0.101-0.833,0.1-1.566,0.6-2.199
			c4.133-5.234,6.483-11.033,7.05-17.4c0.067-1,0.101-2.017,0.101-3.05c0-0.833,0.3-1.534,0.899-2.101
			c0.567-0.6,1.267-0.899,2.101-0.899c0.833,0,1.55,0.3,2.149,0.899c0.567,0.566,0.851,1.268,0.851,2.101
			C467.65,267.367,467.617,268.533,467.55,269.7z" fill="url(#SVGID_1_)" clip-rule="evenodd" fill-rule="evenodd"></path>
	</g>
</g>
</svg>
