<svg xml:space="preserve" viewBox="0 0 850.39 368.5" height="368.5px" width="850.39px" y="0px" x="0px" xmlns:xlink="http://www.w3.org/1999/xlink" xmlns="http://www.w3.org/2000/svg" id="图层_1" version="1.1">
<g>
	<g>
		<path d="M812.25,338.075c0.494-0.253,1.002-0.295,1.525-0.125
			c0.684,0.225,1.4,0.45,2.149,0.675l0.05,0.025c3.1,1.033,6.217,2.066,9.351,3.1c0.521,0.174,0.904,0.508,1.149,1
			c0.254,0.494,0.295,1.002,0.125,1.525c-0.174,0.52-0.507,0.902-1,1.149c-0.495,0.253-1.004,0.294-1.524,0.125
			c-3.134-1.033-6.251-2.066-9.351-3.1l0.051,0.024c-0.785-0.241-1.535-0.482-2.25-0.725c-0.521-0.174-0.904-0.508-1.15-1
			c-0.254-0.494-0.295-1.003-0.125-1.525C811.424,338.705,811.757,338.321,812.25,338.075z M592.525,347.25
			c0.384-0.395,0.851-0.594,1.399-0.6c0.55-0.006,1.025,0.186,1.425,0.574l3.75,3.65c0.394,0.385,0.594,0.852,0.601,1.4
			c0.005,0.551-0.187,1.026-0.575,1.425c-0.385,0.394-0.851,0.595-1.4,0.6s-1.024-0.187-1.425-0.575l-3.75-3.649
			c-0.393-0.385-0.593-0.851-0.6-1.4C591.945,348.123,592.137,347.648,592.525,347.25z M598.15,336.15
			c0.014,0.557-0.17,1.041-0.551,1.449l-2.85,2.851c-0.384,0.392-0.851,0.593-1.4,0.6c-0.551,0.015-1.025-0.169-1.425-0.55
			c-0.402-0.383-0.61-0.85-0.625-1.4c-0.014-0.557,0.17-1.041,0.55-1.449l2.851-2.851c0.384-0.392,0.85-0.593,1.399-0.6
			c0.551-0.015,1.026,0.169,1.426,0.55C597.928,335.133,598.136,335.6,598.15,336.15z M655.325,337
			c0.532,0.139,0.94,0.446,1.225,0.925c0.293,0.47,0.376,0.97,0.25,1.5c-0.139,0.532-0.447,0.94-0.925,1.226l-5.35,3.199
			c-0.471,0.293-0.971,0.376-1.5,0.25c-0.532-0.138-0.941-0.446-1.226-0.925c-0.293-0.47-0.376-0.97-0.25-1.5
			c0.14-0.531,0.447-0.94,0.925-1.225l5.351-3.2C654.296,336.957,654.796,336.874,655.325,337z M662.525,337.925
			c0.422-0.36,0.904-0.519,1.449-0.475c0.546,0.054,0.996,0.296,1.351,0.725l3.45,4.2c0.359,0.422,0.518,0.905,0.475,1.45
			c-0.055,0.546-0.296,0.997-0.725,1.35c-0.422,0.36-0.905,0.519-1.45,0.476c-0.546-0.055-0.995-0.297-1.351-0.726l-3.449-4.2
			c-0.359-0.422-0.519-0.904-0.476-1.449C661.854,338.729,662.096,338.278,662.525,337.925z M662.175,331.5
			c0.106-0.546,0.39-0.979,0.851-1.3l4.199-2.95c0.45-0.314,0.941-0.424,1.476-0.325c0.546,0.106,0.979,0.39,1.3,0.851
			c0.315,0.448,0.424,0.939,0.325,1.475c-0.106,0.546-0.39,0.979-0.851,1.3l-4.199,2.95c-0.45,0.314-0.941,0.424-1.476,0.325
			c-0.546-0.106-0.979-0.39-1.3-0.851C662.185,332.526,662.076,332.035,662.175,331.5z M651.525,324.05
			c0.14-0.534,0.447-0.942,0.925-1.225c0.472-0.276,0.972-0.344,1.5-0.2c0.534,0.133,0.942,0.434,1.225,0.9l3.05,5.1
			c0.277,0.482,0.344,0.99,0.2,1.525c-0.14,0.534-0.448,0.942-0.925,1.225c-0.473,0.277-0.973,0.344-1.5,0.2
			c-0.534-0.134-0.942-0.433-1.225-0.9l-3.051-5.1C651.448,325.093,651.382,324.584,651.525,324.05z M659.875,267.575
			c-0.387-0.395-0.578-0.869-0.575-1.425c-0.003-0.557,0.188-1.031,0.575-1.426c0.395-0.387,0.869-0.578,1.425-0.574h8.9v-8.9
			c-0.004-0.557,0.188-1.031,0.575-1.425c0.394-0.388,0.869-0.579,1.425-0.575c0.556-0.004,1.03,0.188,1.425,0.575
			c0.387,0.394,0.578,0.868,0.575,1.425v8.9h8.85c0.556-0.004,1.031,0.188,1.425,0.574c0.387,0.395,0.579,0.869,0.575,1.426
			c0.004,0.556-0.188,1.03-0.575,1.425c-0.394,0.387-0.869,0.578-1.425,0.575h-8.85v8.899c0.003,0.556-0.188,1.031-0.575,1.425
			c-0.395,0.387-0.869,0.579-1.425,0.575c-0.556,0.004-1.031-0.188-1.425-0.575c-0.388-0.394-0.579-0.869-0.575-1.425v-8.899h-8.9
			C660.744,268.153,660.27,267.962,659.875,267.575z M726.6,213.5c4.011-0.001,7.443,1.44,10.301,4.325l0.024,0.024
			c2.885,2.856,4.326,6.29,4.325,10.301c-0.003,4.08-1.444,7.547-4.325,10.399l-0.024,0.025c-2.857,2.884-6.29,4.325-10.301,4.325
			c-4.007,0.006-7.474-1.437-10.399-4.325c-2.897-2.858-4.348-6.333-4.351-10.425c-0.001-4.022,1.449-7.465,4.351-10.325
			C719.126,214.936,722.593,213.494,726.6,213.5z M734.1,220.675l-0.024-0.024c-2.072-2.1-4.564-3.149-7.476-3.15
			c-2.926,0.006-5.459,1.064-7.6,3.175c-2.1,2.072-3.149,4.563-3.15,7.476c-0.002,2.974,1.047,5.498,3.15,7.574
			c2.141,2.111,4.674,3.17,7.6,3.176c2.911-0.002,5.403-1.051,7.476-3.15l0.024-0.025c2.104-2.076,3.153-4.601,3.15-7.574
			C737.249,225.238,736.199,222.747,734.1,220.675z M673.225,171.575c0.395-0.387,0.869-0.579,1.426-0.575
			c0.556-0.004,1.03,0.188,1.425,0.575c0.387,0.394,0.578,0.869,0.575,1.425v7.9h7.899c0.556-0.003,1.031,0.188,1.425,0.575
			c0.387,0.394,0.579,0.869,0.575,1.425c0.004,0.556-0.188,1.031-0.575,1.425c-0.394,0.387-0.869,0.578-1.425,0.575h-7.899v7.9
			c0.003,0.556-0.188,1.031-0.575,1.425c-0.395,0.387-0.869,0.579-1.425,0.575c-0.557,0.004-1.031-0.188-1.426-0.575
			c-0.387-0.394-0.578-0.869-0.574-1.425v-7.9H664.8c-0.556,0.003-1.03-0.188-1.425-0.575c-0.387-0.395-0.578-0.869-0.575-1.425
			c-0.003-0.556,0.188-1.031,0.575-1.425c0.395-0.387,0.869-0.579,1.425-0.575h7.851V173
			C672.646,172.444,672.838,171.969,673.225,171.575z M756.2,321.45c0.532,0.14,0.94,0.447,1.225,0.925
			c0.285,0.479,0.36,0.987,0.226,1.525c-0.139,0.533-0.447,0.941-0.926,1.225c-0.479,0.284-0.986,0.359-1.524,0.225
			c-49.907-12.577-103.808-21.877-161.7-27.899c-0.549-0.064-0.998-0.314-1.35-0.75c-0.354-0.425-0.504-0.907-0.45-1.45
			c0.063-0.549,0.313-0.999,0.75-1.35c0.424-0.354,0.907-0.503,1.45-0.45C652.007,299.494,706.107,308.827,756.2,321.45z
			 M767.525,326.425c0.14-0.526,0.448-0.927,0.925-1.2c0.474-0.275,0.974-0.343,1.5-0.199c12,3.174,23.75,6.582,35.25,10.225
			c0.526,0.164,0.919,0.489,1.175,0.975c0.253,0.492,0.295,1,0.125,1.525c-0.163,0.526-0.488,0.918-0.975,1.175
			c-0.492,0.253-1.001,0.294-1.525,0.125c-11.434-3.624-23.117-7.017-35.05-10.175c-0.536-0.141-0.944-0.449-1.226-0.925
			C767.448,327.469,767.382,326.96,767.525,326.425z M751.6,279.175c0.541,0.086,0.975,0.353,1.301,0.8
			c0.33,0.443,0.455,0.935,0.375,1.476c-0.079,0.54-0.338,0.974-0.775,1.3l-4.25,3.1c-0.452,0.33-0.952,0.455-1.5,0.375
			c-0.541-0.086-0.975-0.352-1.3-0.8c-0.331-0.442-0.456-0.934-0.375-1.475c0.078-0.541,0.337-0.974,0.774-1.3l4.25-3.101
			C750.552,279.22,751.052,279.095,751.6,279.175z M761.45,285.325c0.351,0.431,0.501,0.923,0.45,1.475
			c-0.055,0.548-0.297,0.997-0.726,1.351c-0.431,0.352-0.923,0.502-1.475,0.449c-0.546-0.055-0.996-0.297-1.351-0.725l-3.3-3.95
			c-0.351-0.431-0.501-0.923-0.45-1.475c0.055-0.548,0.297-0.997,0.726-1.351c0.431-0.352,0.923-0.502,1.475-0.449
			c0.546,0.055,0.996,0.296,1.351,0.725L761.45,285.325z M758.175,275.975c0.292-0.477,0.708-0.785,1.25-0.925l3.55-0.95
			c0.529-0.134,1.029-0.059,1.5,0.226c0.479,0.284,0.787,0.692,0.926,1.225c0.135,0.538,0.06,1.046-0.226,1.525
			c-0.291,0.478-0.708,0.786-1.25,0.925l-3.55,0.95c-0.529,0.134-1.029,0.06-1.5-0.226c-0.479-0.283-0.786-0.691-0.925-1.225
			C757.815,276.962,757.891,276.453,758.175,275.975z M752.875,275.8c0.07,0.546-0.063,1.038-0.4,1.476
			c-0.338,0.434-0.779,0.684-1.324,0.75c-0.547,0.069-1.038-0.064-1.476-0.4l-5.85-4.5c-0.434-0.34-0.684-0.781-0.75-1.325
			c-0.071-0.546,0.063-1.038,0.399-1.475c0.339-0.435,0.78-0.685,1.325-0.75c0.546-0.07,1.038,0.063,1.476,0.399l5.85,4.5
			C752.559,274.814,752.809,275.256,752.875,275.8z M758.05,266.925c0.315,0.456,0.424,0.956,0.325,1.5l-1,5.45
			c-0.106,0.537-0.39,0.963-0.85,1.275c-0.449,0.314-0.94,0.424-1.476,0.324c-0.547-0.105-0.979-0.389-1.3-0.85
			c-0.315-0.456-0.424-0.956-0.325-1.5l1-5.45c0.106-0.537,0.39-0.962,0.851-1.274c0.448-0.316,0.939-0.424,1.475-0.325
			C757.297,266.181,757.73,266.465,758.05,266.925z M186.8,337.85c-0.489,0.27-0.998,0.328-1.524,0.176
			c-0.523-0.162-0.916-0.486-1.176-0.976c-0.269-0.487-0.327-0.996-0.175-1.524c0.163-0.523,0.488-0.916,0.976-1.176l5.899-3.199
			c0.489-0.27,0.998-0.328,1.525-0.176c0.523,0.162,0.915,0.486,1.175,0.976c0.27,0.487,0.327,0.996,0.175,1.524
			c-0.163,0.523-0.487,0.916-0.975,1.176L186.8,337.85z M206.35,338.175c-0.53,0.152-1.038,0.094-1.524-0.175l-5.15-2.9
			c-0.481-0.271-0.798-0.67-0.95-1.199c-0.152-0.531-0.094-1.04,0.176-1.525c0.27-0.482,0.67-0.799,1.199-0.95
			c0.53-0.151,1.039-0.093,1.525,0.175l5.15,2.9c0.48,0.271,0.797,0.67,0.949,1.2c0.152,0.531,0.095,1.04-0.175,1.524
			C207.279,337.707,206.88,338.023,206.35,338.175z M23.85,345.45c-0.498-0.235-0.84-0.61-1.024-1.125
			c-0.188-0.519-0.162-1.026,0.075-1.525c0.233-0.497,0.608-0.839,1.125-1.024c2.558-0.909,5.149-1.784,7.774-2.625
			c0.515-0.17,1.015-0.128,1.5,0.125c0.494,0.248,0.828,0.631,1,1.149c0.17,0.524,0.128,1.032-0.125,1.525
			c-0.255,0.493-0.646,0.827-1.175,1c-2.575,0.825-5.116,1.684-7.625,2.575C24.857,345.711,24.35,345.686,23.85,345.45z
			 M64.275,329.8c0.481,0.271,0.799,0.671,0.949,1.2c0.152,0.531,0.095,1.04-0.175,1.525c-0.27,0.481-0.67,0.798-1.2,0.949
			c-6.908,1.959-13.767,4.034-20.574,6.226c-0.524,0.169-1.032,0.128-1.525-0.125c-0.494-0.248-0.828-0.632-1-1.15
			c-0.17-0.524-0.128-1.032,0.125-1.524c0.247-0.494,0.631-0.828,1.15-1c6.857-2.209,13.766-4.301,20.725-6.275
			C63.281,329.473,63.789,329.531,64.275,329.8z M72.825,289.1c0.552-0.005,1.026,0.188,1.425,0.575
			c0.395,0.385,0.594,0.851,0.6,1.4c0.005,0.55-0.187,1.024-0.574,1.425l-3.75,3.75c-0.385,0.393-0.852,0.593-1.4,0.6
			c-0.552,0.006-1.026-0.186-1.425-0.574c-0.395-0.385-0.595-0.852-0.601-1.4c-0.005-0.551,0.187-1.025,0.575-1.425l3.75-3.75
			C71.81,289.307,72.276,289.107,72.825,289.1z M87.475,294.125c0.387,0.395,0.579,0.869,0.575,1.425
			c0.004,0.556-0.188,1.031-0.575,1.425c-0.394,0.387-0.869,0.579-1.425,0.575c-0.556,0.004-1.031-0.188-1.425-0.575l-3.7-3.649
			c-0.387-0.395-0.578-0.869-0.575-1.425c-0.003-0.557,0.188-1.031,0.575-1.426c0.395-0.387,0.869-0.578,1.425-0.574
			c0.557-0.004,1.031,0.188,1.426,0.574L87.475,294.125z M85.95,280.85L83.1,283.7c-0.383,0.392-0.85,0.593-1.399,0.6
			c-0.551,0.015-1.026-0.169-1.425-0.55c-0.402-0.383-0.611-0.85-0.625-1.4c-0.015-0.557,0.169-1.041,0.55-1.449l2.85-2.851
			c0.384-0.392,0.851-0.593,1.4-0.6c0.551-0.015,1.025,0.169,1.425,0.55c0.402,0.383,0.61,0.85,0.625,1.4
			C86.514,279.957,86.33,280.441,85.95,280.85z M68.625,276.1c0.557,0.006,1.031,0.206,1.425,0.601l2.9,2.95
			c0.379,0.398,0.562,0.873,0.55,1.425c-0.006,0.549-0.206,1.016-0.6,1.399c-0.399,0.389-0.874,0.58-1.426,0.575
			c-0.556-0.006-1.031-0.206-1.425-0.6l-2.899-2.95c-0.379-0.398-0.563-0.873-0.551-1.425c0.006-0.55,0.206-1.017,0.601-1.4
			C67.599,276.287,68.073,276.095,68.625,276.1z M199.475,326.975c-0.359-0.42-0.518-0.903-0.475-1.449
			c0.047-0.546,0.28-0.996,0.7-1.351l3.85-3.35c0.431-0.36,0.922-0.519,1.476-0.476c0.545,0.055,0.995,0.296,1.35,0.726
			c0.36,0.421,0.519,0.903,0.475,1.45c-0.047,0.545-0.28,0.995-0.699,1.35l-3.851,3.35c-0.431,0.36-0.922,0.52-1.475,0.476
			C200.279,327.646,199.829,327.404,199.475,326.975z M188.375,317.85c0.416-0.367,0.899-0.533,1.45-0.5
			c0.549,0.036,1.007,0.262,1.375,0.676l3.7,4.25c0.366,0.417,0.532,0.9,0.5,1.449c-0.035,0.551-0.261,1.009-0.676,1.375
			c-0.416,0.367-0.899,0.534-1.449,0.5c-0.55-0.035-1.008-0.26-1.375-0.675l-3.7-4.25c-0.366-0.417-0.533-0.9-0.5-1.45
			C187.735,318.675,187.96,318.217,188.375,317.85z M145.125,265.625h0.025c2.494-2.416,5.444-3.625,8.85-3.625
			c3.445,0,6.395,1.209,8.85,3.625h0.025c2.457,2.465,3.683,5.406,3.675,8.825c0.003,3.489-1.222,6.465-3.675,8.925h-0.025
			c-2.455,2.416-5.404,3.625-8.85,3.625c-3.405,0-6.355-1.209-8.85-3.625h-0.025c-2.453-2.46-3.678-5.436-3.675-8.925
			C141.442,271.031,142.668,268.09,145.125,265.625z M147.95,268.475h0.024c-1.676,1.669-2.518,3.66-2.524,5.976
			c0.003,2.376,0.845,4.401,2.524,6.075h-0.024c1.705,1.65,3.722,2.475,6.05,2.475c2.354,0,4.371-0.824,6.05-2.475h-0.024
			c1.68-1.674,2.521-3.699,2.524-6.075c-0.007-2.315-0.849-4.307-2.524-5.976h0.024c-1.679-1.65-3.695-2.475-6.05-2.475
			C151.672,266,149.655,266.824,147.95,268.475z M115.75,208.45c-0.004-0.556,0.188-1.031,0.575-1.425
			c0.394-0.387,0.869-0.579,1.425-0.575c0.556-0.004,1.031,0.188,1.425,0.575c0.387,0.394,0.579,0.869,0.575,1.425v10.399h10.3
			c0.556-0.004,1.031,0.188,1.425,0.575c0.387,0.394,0.579,0.869,0.575,1.425c0.004,0.557-0.188,1.031-0.575,1.426
			c-0.394,0.387-0.869,0.578-1.425,0.574h-10.3V233.2c0.004,0.556-0.188,1.03-0.575,1.425c-0.394,0.387-0.869,0.578-1.425,0.575
			c-0.556,0.003-1.031-0.188-1.425-0.575c-0.388-0.395-0.579-0.869-0.575-1.425V222.85H105.4c-0.557,0.004-1.031-0.188-1.426-0.574
			c-0.387-0.395-0.578-0.869-0.574-1.426c-0.004-0.556,0.188-1.031,0.574-1.425c0.395-0.387,0.869-0.579,1.426-0.575h10.35V208.45z
			 M185.425,157.425c0.387,0.394,0.579,0.869,0.575,1.425v7.9h7.9c0.556-0.004,1.03,0.188,1.425,0.575
			c0.387,0.394,0.578,0.869,0.575,1.425c0.003,0.556-0.188,1.031-0.575,1.425c-0.395,0.387-0.869,0.579-1.425,0.575H186v7.9
			c0.004,0.556-0.188,1.031-0.575,1.425c-0.394,0.387-0.869,0.578-1.425,0.575c-0.556,0.003-1.031-0.188-1.425-0.575
			c-0.388-0.395-0.579-0.869-0.575-1.425v-7.9h-7.85c-0.557,0.003-1.031-0.188-1.426-0.575c-0.387-0.394-0.578-0.869-0.574-1.425
			c-0.004-0.556,0.188-1.031,0.574-1.425c0.395-0.387,0.869-0.579,1.426-0.575H182v-7.9c-0.004-0.556,0.188-1.031,0.575-1.425
			c0.394-0.387,0.869-0.579,1.425-0.575C184.556,156.846,185.031,157.038,185.425,157.425z M453.325,338.8
			c-0.946-0.968-2.104-1.451-3.476-1.45c-1.332,0.008-2.498,0.499-3.5,1.476h0.025c-0.951,0.944-1.427,2.103-1.425,3.475
			c-0.002,1.334,0.457,2.483,1.375,3.45c0.017,0.017,0.033,0.033,0.05,0.05c0.998,0.927,2.156,1.394,3.475,1.4
			c1.373,0.001,2.531-0.474,3.476-1.425c0.976-0.97,1.468-2.128,1.475-3.476c0.001-1.371-0.481-2.529-1.45-3.475L453.325,338.8z
			 M449.85,333.35c2.484,0.002,4.584,0.877,6.301,2.625l0.024,0.025c1.749,1.717,2.624,3.816,2.625,6.3
			c0.007,2.452-0.868,4.562-2.625,6.325c-1.723,1.715-3.831,2.574-6.325,2.575c-2.392,0.007-4.483-0.843-6.274-2.55
			c-0.016-0.018-0.032-0.035-0.05-0.051c-1.716-1.757-2.574-3.857-2.575-6.3c0.001-2.494,0.859-4.603,2.575-6.325h0.024
			C445.349,334.219,447.448,333.344,449.85,333.35z M585.925,346.425c0.387,0.394,0.579,0.869,0.575,1.425
			c0.004,0.557-0.188,1.031-0.575,1.426l-3.8,3.75c-0.395,0.387-0.869,0.578-1.425,0.574c-0.556,0.004-1.031-0.188-1.425-0.574
			c-0.388-0.395-0.579-0.869-0.575-1.426c-0.004-0.556,0.188-1.031,0.575-1.425l3.8-3.75c0.394-0.387,0.869-0.579,1.425-0.575
			C585.056,345.846,585.531,346.038,585.925,346.425z M580.275,332.85c0.556,0.006,1.031,0.206,1.425,0.601l2.899,2.95
			c0.379,0.398,0.563,0.873,0.551,1.425c-0.006,0.549-0.206,1.016-0.601,1.399c-0.398,0.389-0.873,0.58-1.425,0.575
			c-0.557-0.006-1.031-0.206-1.425-0.6l-2.9-2.95c-0.379-0.398-0.562-0.873-0.55-1.425c0.006-0.55,0.206-1.017,0.6-1.4
			C579.248,333.037,579.724,332.845,580.275,332.85z M323.875,337.15c0.498,0.244,0.84,0.627,1.025,1.149
			c0.178,0.52,0.145,1.028-0.101,1.525c-0.244,0.499-0.628,0.841-1.149,1.024c-0.519,0.179-1.026,0.146-1.525-0.1l-7.65-3.7
			c-0.498-0.245-0.839-0.628-1.024-1.149c-0.179-0.52-0.146-1.028,0.1-1.525c0.244-0.5,0.628-0.842,1.15-1.025
			c0.518-0.178,1.026-0.145,1.524,0.101L323.875,337.15z M330.775,347.125c0.231-0.504,0.606-0.854,1.125-1.05
			c0.514-0.196,1.021-0.179,1.524,0.05c0.504,0.232,0.854,0.607,1.05,1.125l2.801,7.35c0.195,0.516,0.178,1.023-0.051,1.525
			c-0.231,0.504-0.606,0.854-1.125,1.05c-0.514,0.196-1.021,0.179-1.524-0.05c-0.504-0.232-0.854-0.607-1.05-1.125l-2.801-7.35
			C330.529,348.135,330.546,347.627,330.775,347.125z M326.525,345.35c0.338,0.439,0.471,0.931,0.399,1.476
			c-0.067,0.546-0.317,0.987-0.75,1.325l-8.899,6.75c-0.448,0.328-0.948,0.453-1.5,0.375c-0.538-0.076-0.972-0.334-1.301-0.775
			c-0.338-0.439-0.471-0.931-0.399-1.475c0.067-0.546,0.317-0.988,0.75-1.325l8.899-6.75c0.448-0.329,0.948-0.454,1.5-0.375
			C325.763,344.65,326.196,344.908,326.525,345.35z M343.125,335.625c0.503-0.229,1.011-0.245,1.525-0.05
			c0.517,0.195,0.892,0.545,1.125,1.05c0.229,0.502,0.245,1.01,0.05,1.525c-0.196,0.517-0.547,0.892-1.05,1.125l-7.15,3.35
			c-0.503,0.229-1.011,0.245-1.525,0.05c-0.517-0.195-0.892-0.545-1.125-1.05c-0.229-0.502-0.245-1.01-0.05-1.525
			c0.196-0.517,0.547-0.892,1.05-1.125L343.125,335.625z M329.85,326.15c0.557-0.004,1.031,0.188,1.426,0.574
			c0.387,0.395,0.578,0.869,0.574,1.426v5.55c0.004,0.556-0.188,1.03-0.574,1.425c-0.395,0.387-0.869,0.578-1.426,0.575
			c-0.556,0.003-1.03-0.188-1.425-0.575c-0.387-0.395-0.578-0.869-0.575-1.425v-5.55c-0.003-0.557,0.188-1.031,0.575-1.426
			C328.819,326.338,329.294,326.146,329.85,326.15z M319.075,291.7c-0.415-0.368-0.641-0.826-0.675-1.375
			c-0.034-0.552,0.133-1.034,0.5-1.45c0.367-0.415,0.826-0.641,1.375-0.675c16.758-1.001,33.832-1.751,51.225-2.25
			c0.549-0.015,1.024,0.169,1.425,0.55c0.401,0.382,0.61,0.848,0.625,1.4c0.015,0.549-0.169,1.023-0.55,1.425
			c-0.382,0.401-0.849,0.609-1.4,0.625c-17.341,0.5-34.366,1.25-51.074,2.25C319.974,292.232,319.49,292.066,319.075,291.7z
			 M284.275,291.375c0.429,0.354,0.671,0.805,0.725,1.35c0.043,0.547-0.115,1.029-0.475,1.45c-0.354,0.429-0.805,0.671-1.351,0.726
			c-73.604,6.184-141.021,17.442-202.25,33.774c-0.535,0.144-1.044,0.077-1.524-0.2c-0.477-0.273-0.785-0.673-0.926-1.199
			c-0.143-0.535-0.076-1.044,0.2-1.525c0.273-0.477,0.674-0.784,1.2-0.925c61.438-16.401,129.089-27.71,202.95-33.925
			C283.37,290.857,283.854,291.016,284.275,291.375z M456.85,288.875c-0.38-0.399-0.563-0.875-0.55-1.425
			c0.015-0.55,0.223-1.017,0.625-1.4c0.392-0.38,0.858-0.563,1.4-0.55c16.725,0.3,33.184,0.833,49.375,1.6
			c0.546,0.025,1.004,0.242,1.375,0.65c0.374,0.413,0.549,0.896,0.524,1.45c-0.024,0.546-0.241,1.005-0.649,1.375
			c-0.412,0.374-0.896,0.548-1.45,0.524c-16.143-0.766-32.551-1.299-49.225-1.6C457.716,289.485,457.241,289.277,456.85,288.875z
			 M465.65,36.475c0.438,0.71,0.563,1.469,0.375,2.275l-5.101,21.5c-0.193,0.801-0.644,1.417-1.35,1.85
			c-0.71,0.439-1.469,0.564-2.275,0.375c-0.8-0.193-1.417-0.643-1.85-1.35c-0.438-0.71-0.563-1.469-0.375-2.275l5.1-21.5
			c0.194-0.801,0.644-1.417,1.351-1.85c0.71-0.439,1.468-0.564,2.274-0.375C464.601,35.318,465.217,35.768,465.65,36.475z
			 M480.9,78.475c-0.81-0.163-1.442-0.588-1.9-1.275c-0.454-0.692-0.596-1.442-0.425-2.25c0.163-0.808,0.589-1.441,1.274-1.9
			l19.9-13.1c0.693-0.453,1.443-0.595,2.25-0.425c0.809,0.163,1.442,0.587,1.9,1.275c0.453,0.692,0.596,1.442,0.425,2.25
			c-0.164,0.808-0.589,1.441-1.275,1.9l-19.899,13.1C482.457,78.503,481.707,78.645,480.9,78.475z M489.15,38.3
			c0.515-0.651,1.181-1.026,2-1.125c0.816-0.098,1.55,0.111,2.199,0.625c0.651,0.514,1.026,1.18,1.125,2
			c0.097,0.816-0.111,1.549-0.625,2.2L474.4,66.95c-0.516,0.65-1.182,1.025-2,1.125c-0.817,0.098-1.551-0.111-2.2-0.625
			c-0.651-0.513-1.026-1.18-1.125-2c-0.097-0.816,0.112-1.549,0.625-2.2L489.15,38.3z M222.1,58.4l0.45,1.8
			c0.215,0.793,0.115,1.551-0.3,2.275c-0.406,0.724-1.007,1.199-1.8,1.425c-0.795,0.216-1.553,0.116-2.275-0.3
			c-0.724-0.405-1.198-1.005-1.425-1.8L216.3,60c-0.215-0.793-0.114-1.551,0.3-2.275c0.407-0.725,1.007-1.2,1.801-1.425
			c0.794-0.216,1.553-0.116,2.274,0.3C221.398,57.005,221.873,57.605,222.1,58.4z M241.475,20.75h-0.024
			c-9.697-2.643-20.539-2.359-32.525,0.85c-11.918,3.179-21.493,8.362-28.725,15.55l-0.025,0.025
			c-6.464,6.591-8.905,13.107-7.325,19.55c1.838,6.302,7.205,10.677,16.101,13.125c9.858,2.613,20.767,2.33,32.725-0.85h-0.024
			c2.479-0.69,7.111-2.374,13.899-5.05c0.718-0.282,1.434-0.29,2.15-0.025L249,68.1l-2.45-9c-0.151-0.56-0.144-1.118,0.025-1.675
			c0.167-0.543,0.467-1.001,0.899-1.375c0.979-0.85,1.913-1.7,2.801-2.55c0.016-0.017,0.032-0.034,0.05-0.05
			c6.53-6.614,9.022-13.123,7.475-19.525C255.959,27.564,250.518,23.173,241.475,20.75z M243.05,14.95h-0.024
			c11.625,3.11,18.483,8.919,20.574,17.425c2.384,8.38-0.642,16.821-9.074,25.325c-0.019,0.014-0.035,0.031-0.051,0.05
			c-0.529,0.513-1.071,1.029-1.625,1.55l3.5,12.85c0.198,0.74,0.123,1.457-0.225,2.15c-0.342,0.686-0.867,1.169-1.575,1.45
			c-0.716,0.282-1.433,0.29-2.149,0.025l-15.726-5.8c-6.495,2.543-10.97,4.152-13.425,4.825h-0.025
			c-13.099,3.484-25.049,3.768-35.85,0.85h-0.025c-11.438-3.153-18.205-8.944-20.3-17.375c-2.418-8.415,0.532-16.857,8.851-25.325
			l0.024-0.025c7.898-7.933,18.382-13.641,31.45-17.125C220.521,12.276,232.413,11.993,243.05,14.95z M219.225,28.35
			c0.043,0.023,0.085,0.048,0.125,0.075c2.798,1.546,4.598,3.846,5.4,6.9V35.3c0.85,3.088,0.44,6.021-1.225,8.8
			c-0.024,0.042-0.049,0.084-0.075,0.125c-0.955,1.693-2.222,3.01-3.8,3.95l0.024-0.025c-0.1,0.063-0.199,0.121-0.3,0.175
			l0.825,3.15c0.206,0.801,0.098,1.559-0.325,2.275c-0.419,0.719-1.027,1.186-1.825,1.4c-0.791,0.207-1.541,0.099-2.25-0.325
			c-0.719-0.412-1.186-1.012-1.399-1.8l-1.5-5.7c-0.144-0.522-0.144-1.048,0-1.575c0.151-0.523,0.427-0.973,0.824-1.35
			c0.394-0.384,0.852-0.642,1.375-0.775c0.516-0.121,0.991-0.313,1.426-0.575l0.024-0.025c0.716-0.437,1.291-1.044,1.726-1.825
			c0.024-0.038,0.049-0.079,0.074-0.125c0.805-1.318,1.005-2.709,0.601-4.175v-0.025c-0.386-1.433-1.243-2.507-2.575-3.225
			c-0.039-0.025-0.08-0.05-0.125-0.075c-1.273-0.768-2.632-0.959-4.075-0.575c-1.441,0.384-2.566,1.218-3.375,2.5
			c-0.665,1.275-0.831,2.642-0.5,4.1c0.177,0.486,0.311,0.953,0.4,1.4c0.161,0.809,0.011,1.559-0.45,2.25
			c-0.459,0.697-1.092,1.13-1.9,1.3c-0.809,0.162-1.559,0.012-2.25-0.45c-0.695-0.458-1.129-1.091-1.3-1.9
			c-0.039-0.199-0.098-0.407-0.175-0.625c-0.027-0.092-0.053-0.184-0.075-0.275c-0.804-3.068-0.487-5.935,0.95-8.6
			c0.024-0.038,0.05-0.08,0.075-0.125c1.653-2.78,4.003-4.572,7.05-5.375C213.667,26.396,216.534,26.78,219.225,28.35z
			 M660.45,77.25c0.81-0.162,1.56-0.012,2.25,0.45c0.696,0.458,1.13,1.092,1.3,1.9c0.161,0.815,0.012,1.574-0.45,2.275l-3.2,4.75
			c-0.459,0.686-1.092,1.111-1.899,1.275c-0.81,0.162-1.56,0.012-2.25-0.45c-0.696-0.459-1.13-1.092-1.3-1.9
			c-0.162-0.815-0.012-1.574,0.449-2.275l3.2-4.75C659.01,77.839,659.643,77.414,660.45,77.25z M668.975,72.6
			c-0.812,0.153-1.562-0.005-2.25-0.475c-0.689-0.461-1.114-1.094-1.274-1.9c-0.151-0.811,0.007-1.561,0.475-2.25l14.65-21.55
			c0.462-0.689,1.096-1.114,1.899-1.275c0.813-0.153,1.563,0.005,2.25,0.475c0.69,0.461,1.115,1.094,1.275,1.9
			c0.151,0.811-0.007,1.561-0.475,2.25l-14.65,21.55C670.412,72.014,669.779,72.439,668.975,72.6z" fill="#9BA8D5" clip-rule="evenodd" fill-rule="evenodd"></path>
	</g>
	<g>
		<linearGradient y2="95.6006" x2="413.1289" y1="315.5742" x1="413.1289" gradientUnits="userSpaceOnUse" id="SVGID_1_">
			<stop style="stop-color:#478CCB" offset="0"></stop>
			<stop style="stop-color:#6AABDE" offset="1"></stop>
		</linearGradient>
		<path d="M278,250.4l-2.65-37.426l-15.125,38.65L278,250.4z
			 M331.4,270.6c-0.051-0.826,0.199-1.551,0.75-2.175c0.545-0.626,1.229-0.968,2.05-1.024c0.825-0.051,1.55,0.199,2.175,0.75
			c0.626,0.547,0.968,1.23,1.025,2.05l0.75,10.7c0.05,0.822-0.2,1.547-0.75,2.175c-0.546,0.625-1.229,0.966-2.051,1.024l-13,0.926
			l0.351,5.3c0.05,0.828-0.2,1.553-0.75,2.175c-0.556,0.619-1.247,0.952-2.075,1c-0.826,0.051-1.552-0.199-2.175-0.75
			c-0.618-0.557-0.952-1.248-1-2.075l-0.55-8.25c-0.048-0.815,0.202-1.532,0.75-2.149c0.545-0.623,1.229-0.965,2.05-1.025l13-0.925
			L331.4,270.6z M275.9,196.85c0.61-0.354,1.26-0.479,1.949-0.375c0.689,0.111,1.272,0.428,1.75,0.95
			c0.481,0.519,0.748,1.127,0.801,1.825l3.8,53.75c0.059,0.813-0.183,1.53-0.726,2.15c-0.551,0.633-1.242,0.982-2.074,1.05
			l-25.5,1.75c-0.69,0.047-1.324-0.128-1.9-0.525c-0.577-0.399-0.969-0.933-1.175-1.6c-0.206-0.664-0.181-1.322,0.075-1.976
			l21.699-55.5C274.856,197.701,275.289,197.201,275.9,196.85z M424.9,144.6c0-2.467-0.934-4.583-2.801-6.35
			c-1.899-1.8-4.199-2.7-6.899-2.7h-0.05c-2.7,0-5,0.9-6.9,2.7h-0.05c-1.834,1.767-2.75,3.883-2.75,6.35v116.65
			c0,2.467,0.916,4.584,2.75,6.35h0.05c1.9,1.801,4.2,2.7,6.9,2.7h0.05c2.7,0,5-0.899,6.899-2.7v-0.05
			c1.867-1.733,2.801-3.833,2.801-6.3V144.6z M430.9,144.6v116.65c0,4.2-1.551,7.767-4.65,10.7h-0.05c-3.033,2.899-6.7,4.35-11,4.35
			h-0.05c-4.301,0-7.983-1.45-11.051-4.35c-3.1-2.934-4.649-6.5-4.649-10.7V144.6c0-4.167,1.55-7.733,4.649-10.7v-0.05
			c3.067-2.867,6.75-4.3,11.051-4.3h0.05c4.3,0,7.967,1.45,11,4.35h0.05C429.35,136.867,430.9,140.434,430.9,144.6z M587.8,298.35
			c-0.028-0.826,0.238-1.543,0.8-2.149c3.416-3.669,6.166-8.003,8.25-13c0.276-1.313,0.568-2.639,0.875-3.976
			c0.193-0.808,0.644-1.433,1.351-1.875c0.7-0.438,1.45-0.563,2.25-0.375c0.808,0.193,1.433,0.643,1.875,1.351
			c0.438,0.7,0.563,1.45,0.375,2.25c-0.333,1.416-0.649,2.816-0.95,4.2c-0.035,0.174-0.085,0.35-0.15,0.524
			c-2.375,5.782-5.533,10.782-9.475,15c-0.573,0.606-1.273,0.923-2.1,0.95c-0.826,0.022-1.543-0.252-2.15-0.825
			C588.145,299.862,587.828,299.17,587.8,298.35z M468.1,266.2c0,1.167-0.033,2.333-0.1,3.5v0.05
			c-0.634,7.566-3.417,14.45-8.35,20.65c-0.5,0.633-1.167,1-2,1.1c-0.834,0.066-1.567-0.15-2.2-0.65c-0.667-0.5-1.033-1.166-1.101-2
			c-0.1-0.833,0.101-1.566,0.601-2.199c4.133-5.234,6.483-11.033,7.05-17.4c0.066-1,0.1-2.017,0.1-3.05
			c0-0.833,0.301-1.534,0.9-2.101c0.566-0.6,1.267-0.899,2.1-0.899c0.834,0,1.551,0.3,2.15,0.899
			C467.816,264.666,468.1,265.367,468.1,266.2z M415.2,101.6c-12.934,0-24.033,3.883-33.3,11.65
			c-9.034,7.566-13.567,16.55-13.601,26.95v126c0,1,0.05,2.017,0.15,3.05c0.533,6.367,2.866,12.166,7,17.4
			c1.833,2.266,3.967,4.434,6.399,6.5c1.033,0.833,2.101,1.616,3.2,2.35l0.05,0.05c8.567,5.8,18.601,8.684,30.101,8.65
			c11.5,0,21.55-2.884,30.149-8.65c0.667-0.5,1.417-0.667,2.25-0.5c0.801,0.167,1.434,0.601,1.9,1.3
			c0.467,0.667,0.616,1.417,0.45,2.25c-0.167,0.801-0.584,1.434-1.25,1.9c-9.567,6.467-20.733,9.7-33.5,9.7
			c-12.767-0.034-23.917-3.267-33.45-9.7c-1.233-0.8-2.45-1.684-3.65-2.65c-0.033-0.033-0.066-0.05-0.1-0.05
			c-2.8-2.366-5.217-4.833-7.25-7.399c-4.934-6.2-7.7-13.084-8.3-20.65c-0.101-1.166-0.15-2.35-0.15-3.55v-126
			c-0.033-12.2,5.217-22.717,15.75-31.55c10.367-8.7,22.75-13.05,37.15-13.05c14.399,0,26.767,4.35,37.1,13.05
			c10.566,8.833,15.833,19.35,15.8,31.55v115.05c0,0.834-0.283,1.55-0.85,2.15c-0.6,0.566-1.316,0.85-2.15,0.85
			c-0.833,0-1.533-0.283-2.1-0.85c-0.6-0.601-0.9-1.316-0.9-2.15V140.2c-0.033-10.4-4.583-19.384-13.649-26.95
			C439.217,105.483,428.133,101.6,415.2,101.6z M275.475,115.125l0.025-0.025l-52.8,135.25l0.024-0.1
			c-0.552,1.589-0.777,3.164-0.675,4.725l1.3,18.101v0.05c0.071,1.413,0.38,2.722,0.926,3.925c0.827,1.753,2.11,3.319,3.85,4.7
			c3.402,2.303,7.077,3.319,11.025,3.05l44.05-3.05c0.824-0.051,1.549,0.199,2.175,0.75c0.625,0.545,0.967,1.229,1.025,2.05
			l1.399,20.4l29.726-2.101l-0.176-2.625c-0.059-0.822,0.183-1.547,0.726-2.175c0.543-0.634,1.227-0.983,2.05-1.05
			c0.823-0.06,1.548,0.182,2.175,0.725c0.633,0.543,0.983,1.227,1.05,2.051l0.4,5.649c0.061,0.831-0.181,1.564-0.725,2.2
			c-0.55,0.627-1.242,0.969-2.075,1.025l-35.75,2.5c-0.826,0.053-1.551-0.197-2.175-0.75c-0.628-0.545-0.97-1.229-1.025-2.051
			l-1.4-20.399l-41.05,2.85c-5.384,0.393-10.384-1.016-15-4.225c-0.057-0.042-0.114-0.083-0.175-0.125
			c-2.527-2.019-4.377-4.319-5.55-6.9c-0.854-1.863-1.347-3.888-1.476-6.075l-1.3-18.05V255.4c-0.161-2.364,0.181-4.748,1.025-7.15
			c0.009-0.032,0.018-0.065,0.024-0.1L269.9,112.9l0.024-0.025c3.761-9.446,11.369-13.671,22.825-12.675
			c0.046,0.007,0.097,0.016,0.15,0.025c11.234,1.54,17.134,7.215,17.699,17.025l9.15,130.225l12.975-0.925
			c0.833-0.058,1.566,0.192,2.2,0.75c0.633,0.552,0.974,1.244,1.025,2.075l0.45,6.65c0.049,0.827-0.201,1.553-0.75,2.175
			c-0.556,0.618-1.247,0.952-2.075,1c-0.827,0.05-1.552-0.2-2.175-0.75c-0.619-0.557-0.952-1.249-1-2.075l-0.25-3.6l-12.976,0.925
			c-0.825,0.062-1.55-0.181-2.175-0.726c-0.635-0.549-0.985-1.24-1.05-2.074L304.6,117.65c-0.563-6.547-4.679-10.364-12.35-11.45
			C283.905,105.462,278.313,108.438,275.475,115.125z M608.325,107.575c0.546,0.629,0.787,1.354,0.725,2.175l-2.25,32.75
			c-0.057,0.833-0.398,1.525-1.024,2.075c-0.629,0.544-1.354,0.786-2.176,0.725l-50.675-3.55l-2.05,29.1l38.475,2.7h0.025
			c6.314,0.456,11.314,2.598,15,6.425c0.025,0.024,0.051,0.049,0.075,0.075c4.208,4.049,6.125,8.849,5.75,14.4l-5,71.5
			c-0.067,0.833-0.417,1.524-1.05,2.075c-0.627,0.543-1.353,0.784-2.176,0.725c-0.822-0.066-1.506-0.416-2.05-1.05
			c-0.542-0.62-0.784-1.337-0.725-2.15l5-71.5c0.223-3.748-1.103-6.989-3.976-9.725c-0.021-0.024-0.046-0.05-0.074-0.075
			c-2.769-2.787-6.502-4.354-11.2-4.7l-41.5-2.9c-0.834-0.057-1.525-0.398-2.075-1.025c-0.545-0.636-0.786-1.369-0.725-2.2l2.5-35.1
			c0.066-0.824,0.416-1.507,1.05-2.05c0.62-0.542,1.336-0.784,2.149-0.725L601,139.1l1.85-26.75L533.7,107.5
			c-4.66-0.311-8.535,0.739-11.625,3.15c-0.052,0.033-0.103,0.066-0.15,0.1c-3.257,2.303-5.032,5.32-5.325,9.05l-4.699,67.8
			c-0.19,3.394,1.143,6.427,4,9.101c0.029,0.032,0.063,0.065,0.1,0.1c2.764,2.788,6.48,4.337,11.15,4.65l41.5,2.899
			c0.833,0.057,1.524,0.398,2.074,1.025c0.545,0.628,0.786,1.354,0.726,2.175l-4.5,63.7c-0.032,0.48-0.175,0.93-0.425,1.35
			c-0.229,0.428-0.37,0.961-0.426,1.601c-0.02,0.175-0.053,0.351-0.1,0.524c-0.442,1.66-1.109,3.078-2,4.25
			c-0.019,0.032-0.035,0.065-0.05,0.101c-0.542,0.675-1.167,1.267-1.875,1.774c-1.661,1.572-4.911,2.188-9.75,1.851
			c-1.753-0.101-3.271-0.2-4.55-0.3c-0.235-0.024-0.469-0.074-0.7-0.15c-2.193-0.697-3.826-1.589-4.9-2.675
			c-0.079-0.084-0.154-0.167-0.225-0.25c-0.509-0.597-0.942-1.339-1.3-2.226c-0.019-0.04-0.035-0.082-0.051-0.125
			c-0.41-0.939-0.719-2.057-0.925-3.35c-0.028-0.205-0.036-0.405-0.024-0.6c0.007-0.375-0.068-0.75-0.226-1.125
			c-0.17-0.412-0.245-0.836-0.225-1.275c0.032-0.868,0.065-1.502,0.1-1.9c0.061-0.678,0.311-1.261,0.75-1.75l2.601-37.25
			l-32.301-2.274l-2.55,36.75v0.05c-0.066,0.767-0.133,1.551-0.2,2.35c-0.036,0.773-0.104,1.732-0.199,2.875v0.025
			c-0.087,1.094-0.063,2.203,0.074,3.325c0.012,0.078,0.02,0.153,0.025,0.225c0.059,1.22,0.259,2.452,0.6,3.7
			c0.031,0.117,0.057,0.234,0.075,0.35c0.759,5.158,2.566,9.783,5.425,13.875l0.025,0.025c0.934,1.352,2.017,2.643,3.25,3.875
			c0.031,0.035,0.065,0.068,0.1,0.1c1.828,2.021,3.902,3.871,6.226,5.551h0.024c1.737,1.273,3.612,2.439,5.625,3.5
			c0.017,0.008,0.033,0.016,0.051,0.024c5.899,2.969,12.85,4.735,20.85,5.3c0.073,0.006,0.148,0.015,0.225,0.025l0.7,0.05
			l-0.225-0.024c7.592,0.539,14.492-0.269,20.7-2.426c0.061-0.018,0.119-0.033,0.175-0.05c2.379-0.682,4.604-1.548,6.675-2.6
			c0.738-0.375,1.496-0.434,2.275-0.175c0.787,0.26,1.37,0.76,1.75,1.5c0.375,0.735,0.434,1.494,0.175,2.274
			c-0.262,0.787-0.762,1.37-1.5,1.75c-2.345,1.19-4.862,2.173-7.55,2.95c-6.926,2.443-14.626,3.368-23.101,2.775
			c-0.073-0.006-0.147-0.015-0.225-0.025l-0.7-0.05l0.225,0.024c-8.91-0.633-16.644-2.625-23.199-5.975l-0.051-0.025
			c-2.301-1.2-4.442-2.525-6.425-3.975h0.025c-2.678-1.92-5.069-4.037-7.175-6.35c-1.459-1.472-2.742-3.014-3.851-4.625l0.025,0.024
			c-3.378-4.798-5.528-10.214-6.45-16.25c-0.429-1.63-0.679-3.238-0.75-4.825c-0.174-1.459-0.207-2.9-0.1-4.324V269
			c0.098-1.116,0.165-2.041,0.199-2.775c0-0.038,0-0.08,0-0.125c0.066-0.8,0.134-1.583,0.2-2.35l2.75-39.7
			c0.057-0.822,0.397-1.506,1.025-2.05c0.624-0.553,1.349-0.803,2.175-0.75l38.3,2.7c0.825,0.06,1.509,0.401,2.05,1.024
			c0.549,0.625,0.799,1.35,0.75,2.176l-2.8,40.35v0.05c-0.093,1.081-0.368,1.981-0.825,2.7c0.291,0.88,0.433,1.764,0.426,2.65
			c0.123,0.687,0.289,1.286,0.5,1.8c0.016,0.044,0.032,0.086,0.05,0.125c0.073,0.189,0.156,0.356,0.25,0.5
			c0.517,0.417,1.217,0.783,2.1,1.1c1.188,0.093,2.563,0.185,4.125,0.275h0.025c2.755,0.192,4.63,0.01,5.625-0.55
			c0.058-0.042,0.116-0.084,0.175-0.125c0.286-0.197,0.536-0.432,0.75-0.7l-0.05,0.1c0.396-0.562,0.704-1.22,0.925-1.975
			c0.135-1.24,0.427-2.315,0.875-3.226l4.25-60.074l-38.5-2.7c-6.275-0.417-11.259-2.534-14.95-6.351
			c-0.034-0.032-0.067-0.065-0.1-0.1c-4.273-4.034-6.207-8.635-5.8-13.8l4.699-67.8v-0.025c0.377-5.535,2.952-10.01,7.726-13.425
			c4.176-3.389,9.435-4.873,15.774-4.45l72.15,5.05C607.079,106.604,607.771,106.946,608.325,107.575z" fill="url(#SVGID_1_)" clip-rule="evenodd" fill-rule="evenodd"></path>
	</g>
</g>
</svg>
