<?xml version="1.0" encoding="utf-8"?>
<!-- Generator: Adobe Illustrator 19.0.0, SVG Export Plug-In . SVG Version: 6.00 Build 0)  -->
<svg version="1.1" id="图层_1" xmlns="http://www.w3.org/2000/svg" xmlns:xlink="http://www.w3.org/1999/xlink" x="0px" y="0px"
	 viewBox="0 0 11.3 11.9" style="enable-background:new 0 0 11.3 11.9;" xml:space="preserve">
<style type="text/css">
	.st0{clip-path:url(#SVGID_2_);fill:#606060;}
</style>
<g>
	<defs>
		<rect id="SVGID_1_" y="0" width="11.4" height="11.9"/>
	</defs>
	<clipPath id="SVGID_2_">
		<use xlink:href="#SVGID_1_"  style="overflow:visible;"/>
	</clipPath>
	<path class="st0" d="M8.1,3.7C8,3.7,8,3.6,7.9,3.6l0.3,0.3C8.2,3.8,8.1,3.8,8.1,3.7"/>
	<path class="st0" d="M7.2,4.1C7.1,4.1,7,4,7,4l0.3,0.3C7.3,4.3,7.2,4.2,7.2,4.1"/>
	<path class="st0" d="M10.8,0L10.8,0L10.8,0L10.8,0C10.8,0,10.8,0,10.8,0c-0.2,0-2.7,0.2-4,1C6.5,1.2,6.4,1.5,6.3,2.1
		C6.1,1.9,5.9,1.8,5.6,1.8C5.4,1.8,5.2,1.8,5,2c-0.5,0.4-2.2,1.8-3,3.5C1.2,7.6,1.3,9.2,1.3,9.3c0,0,0,0,0,0c0,0,0,0.1,0.1,0.2
		c1.7-2.3,4.1-3.9,4.1-3.9L1.9,9.8c0.1,0,0.3,0,0.5,0c1.1,0,3.3-0.4,6.1-3.2c2.5-2.5,2.9-5.6,2.9-6c0,0,0-0.1,0-0.1
		C11.4,0.2,11.1,0,10.8,0"/>
	<path class="st0" d="M0.2,11.9C0.2,11.9,0.2,11.9,0.2,11.9C0,11.9,0,11.8,0,11.7c1.3-3.5,5.3-6.1,5.5-6.2c0.1-0.1,0.2,0,0.3,0.1
		c0.1,0.1,0,0.2-0.1,0.3c0,0-4,2.7-5.3,6C0.4,11.9,0.3,11.9,0.2,11.9"/>
</g>
</svg>
