<svg width="418" height="233" viewBox="0 0 418 233" fill="none" xmlns="http://www.w3.org/2000/svg">
<path d="M416.843 232.923H1.15667C0.517857 232.923 0 232.405 0 231.766C0 231.128 0.517857 230.61 1.15667 230.61H416.843C417.482 230.61 418 231.128 418 231.766C418 232.405 417.482 232.923 416.843 232.923Z" fill="#00005A"/>
<path d="M372.841 185.45C391.623 185.45 406.849 159.659 406.849 127.845C406.849 96.0299 391.623 70.2389 372.841 70.2389C354.058 70.2389 338.833 96.0299 338.833 127.845C338.833 159.659 354.058 185.45 372.841 185.45Z" fill="#099AA4"/>
<path fill-rule="evenodd" clip-rule="evenodd" d="M337.676 127.843C337.676 160.234 353.454 186.607 372.841 186.607C392.274 186.607 408.005 160.233 408.005 127.843C408.005 95.4534 392.227 69.0794 372.841 69.0794C353.454 69.0794 337.676 95.4529 337.676 127.843ZM349.798 87.7266C356.044 77.1794 364.186 71.3956 372.841 71.3956C381.493 71.3956 389.683 77.2245 395.883 87.7266C402.222 98.4609 405.692 112.712 405.692 127.842C405.692 142.973 402.222 157.223 395.883 167.958C389.637 178.505 381.493 184.289 372.841 184.289C364.188 184.289 355.998 178.508 349.798 167.958C343.459 157.224 339.989 142.973 339.989 127.842C339.989 112.712 343.459 98.4613 349.798 87.7266Z" fill="#373435"/>
<path d="M370.943 223.299C370.636 223.302 370.34 223.181 370.122 222.963C369.905 222.746 369.784 222.45 369.787 222.142V84.6749C369.787 84.0361 370.305 83.5182 370.943 83.5182C371.582 83.5182 372.1 84.0361 372.1 84.6749V222.096C372.11 222.746 371.594 223.283 370.943 223.299Z" fill="#9B8A20"/>
<path d="M370.712 172.541C370.371 172.54 370.049 172.386 369.833 172.122C369.432 171.634 369.494 170.915 369.972 170.503L396.808 148.297C397.294 147.888 398.019 147.95 398.428 148.436C398.837 148.921 398.774 149.647 398.289 150.055L371.452 172.263C371.247 172.441 370.984 172.54 370.712 172.541Z" fill="#9B8A20"/>
<path d="M371.173 151.72C370.811 151.712 370.471 151.542 370.247 151.257L346.653 118.406C346.388 118.068 346.331 117.612 346.504 117.219C346.677 116.826 347.053 116.561 347.481 116.528C347.909 116.496 348.32 116.702 348.55 117.064L372.147 149.915C372.508 150.441 372.384 151.159 371.868 151.534C371.65 151.639 371.414 151.702 371.173 151.72Z" fill="#9B8A20"/>
<path d="M371.175 123.032C370.879 123.036 370.595 122.918 370.388 122.707C369.936 122.269 369.915 121.55 370.342 121.087L393.014 97.4936C393.448 97.0336 394.173 97.0129 394.633 97.4473C395.093 97.8817 395.114 98.6067 394.68 99.0667L372.008 122.664C371.792 122.896 371.491 123.028 371.175 123.032Z" fill="#9B8A20"/>
<path d="M43.4007 185.45C62.1828 185.45 77.4088 159.659 77.4088 127.845C77.4088 96.0299 62.1828 70.2389 43.4007 70.2389C24.6185 70.2389 9.39258 96.0299 9.39258 127.845C9.39258 159.659 24.6185 185.45 43.4007 185.45Z" fill="#07818F"/>
<path fill-rule="evenodd" clip-rule="evenodd" d="M8.23584 127.843C8.23584 160.234 24.0137 186.607 43.4006 186.607C62.8341 186.607 78.5654 160.236 78.5654 127.846C78.5654 95.4562 62.7875 69.0822 43.4006 69.0822C24.0137 69.0822 8.23584 95.4529 8.23584 127.843ZM20.3581 87.7266C26.6039 77.1794 34.7462 71.3956 43.4002 71.3956C52.0529 71.3956 60.2426 77.2245 66.4423 87.7266C72.7817 98.4609 76.2517 112.712 76.2517 127.842C76.2517 142.973 72.7812 157.223 66.4423 167.958C60.1965 178.505 52.0524 184.289 43.4002 184.289C34.748 184.289 26.5583 178.508 20.3581 167.958C14.0188 157.224 10.5488 142.973 10.5488 127.842C10.5488 112.712 14.0193 98.4613 20.3581 87.7266Z" fill="#373435"/>
<path d="M45.668 223.299C45.3603 223.302 45.0643 223.181 44.8467 222.963C44.6292 222.746 44.5083 222.45 44.5113 222.142V84.6749C44.5113 84.2616 44.7317 83.8798 45.0896 83.6732C45.4475 83.4666 45.8884 83.4666 46.2463 83.6732C46.6042 83.8798 46.8246 84.2616 46.8246 84.6749V222.096C46.8345 222.746 46.3183 223.283 45.668 223.299Z" fill="#9B8A20"/>
<path d="M45.8988 172.541C45.6265 172.54 45.3638 172.441 45.1585 172.262L18.3221 150.054C18.0081 149.79 17.8589 149.378 17.9309 148.974C18.0029 148.569 18.2851 148.234 18.6712 148.095C19.0572 147.955 19.4886 148.032 19.8026 148.296L46.639 170.505C46.8783 170.698 47.0286 170.98 47.0549 171.285C47.0813 171.591 46.9815 171.895 46.7786 172.125C46.5686 172.396 46.2417 172.551 45.8988 172.541Z" fill="#9B8A20"/>
<path d="M45.4364 151.72C45.1883 151.706 44.9484 151.626 44.7422 151.487C44.2258 151.112 44.102 150.394 44.463 149.867L68.0607 117.016C68.291 116.654 68.7021 116.448 69.1301 116.48C69.5581 116.513 69.9335 116.778 70.1066 117.171C70.2797 117.564 70.2224 118.02 69.9576 118.358L46.36 151.209C46.1637 151.53 45.8127 151.724 45.4364 151.72Z" fill="#9B8A20"/>
<path d="M45.436 123.032C45.1192 123.027 44.8182 122.893 44.6032 122.66L21.9328 99.0648C21.6518 98.7673 21.5509 98.3424 21.6681 97.9503C21.7853 97.5582 22.1028 97.2583 22.5009 97.1637C22.8991 97.0692 23.3175 97.1942 23.5985 97.4917L46.2665 121.089C46.4827 121.306 46.6001 121.602 46.5913 121.909C46.5825 122.215 46.4483 122.504 46.22 122.708C46.0185 122.926 45.7321 123.044 45.436 123.032Z" fill="#9B8A20"/>
<path fill-rule="evenodd" clip-rule="evenodd" d="M72.5044 148.481H343.645C344.505 148.475 345.332 148.815 345.941 149.424C346.549 150.032 346.889 150.859 346.883 151.72V232.692H69.2656V151.72C69.271 149.933 70.7179 148.486 72.5044 148.481Z" fill="#D8EDFF"/>
<path fill-rule="evenodd" clip-rule="evenodd" d="M68.1089 232.923H348.04L348.038 150.794C348.023 148.373 346.064 146.414 343.643 146.399H72.5043C70.0832 146.414 68.1244 148.373 68.1089 150.794V232.923ZM345.726 230.61H70.4222H70.4218V150.794C70.4194 150.241 70.638 149.71 71.029 149.319C71.42 148.928 71.9509 148.71 72.5039 148.712H343.644C344.197 148.71 344.728 148.928 345.119 149.319C345.51 149.71 345.728 150.241 345.726 150.794V230.61Z" fill="#00005A"/>
<path fill-rule="evenodd" clip-rule="evenodd" d="M345.887 149.638L346.3 150.239L345.979 150.794H345.291L323.771 116.231L324.735 116.786H96.2402L97.1577 116.324L72.7486 150.795H71.9227L71.6934 150.332L72.1521 149.638H345.887Z" fill="#BAE3FF"/>
<path fill-rule="evenodd" clip-rule="evenodd" d="M71.3282 151.951H346.621C347.053 151.944 347.453 151.718 347.68 151.35C347.872 150.983 347.854 150.543 347.633 150.193L325.702 115.028C325.517 114.671 325.14 114.454 324.738 114.473H96.2435C95.8788 114.461 95.533 114.635 95.326 114.936L70.4121 150.1C70.1553 150.451 70.1192 150.917 70.319 151.304C70.4977 151.7 70.8933 151.954 71.3282 151.951ZM344.556 149.638H73.5773L96.8386 116.786H324.093L344.556 149.638Z" fill="#00005A"/>
<path fill-rule="evenodd" clip-rule="evenodd" d="M63.2407 144.64H352.861C354.42 144.64 355.695 146.26 355.695 148.296V150.146C355.695 152.183 354.42 153.802 352.861 153.802H63.2407C61.6815 153.802 60.4058 152.182 60.4058 150.146V148.296C60.4058 146.306 61.6815 144.64 63.2407 144.64Z" fill="#FEFEFE"/>
<rect opacity="0.05" x="262.93" y="148.805" width="93.5442" height="4.99697" fill="#00005A"/>
<path fill-rule="evenodd" clip-rule="evenodd" d="M63.2404 155.005H352.861C355.081 155.005 356.876 152.83 356.876 150.193V148.342C356.876 145.705 355.081 143.53 352.861 143.53H63.2404C61.0201 143.53 59.2246 145.705 59.2246 148.342V150.193C59.2246 152.83 61.0196 155.005 63.2404 155.005ZM61.5872 148.296C61.5872 146.954 62.3433 145.797 63.2408 145.797H352.861C353.758 145.797 354.514 146.954 354.514 148.296V150.147C354.514 151.488 353.758 152.645 352.861 152.645H63.2408C62.3433 152.645 61.5872 151.488 61.5872 150.147V148.296Z" fill="#00005A"/>
<rect opacity="0.05" x="59.3169" y="148.805" width="89.7086" height="4.99697" fill="#00005A"/>
<path fill-rule="evenodd" clip-rule="evenodd" d="M340.868 231.535C342.483 219.224 352.975 210.019 365.391 210.019C377.807 210.019 388.299 219.224 389.914 231.535H340.868Z" fill="#85E28E"/>
<path fill-rule="evenodd" clip-rule="evenodd" d="M339.573 232.692H391.257L391.119 231.396C389.429 218.504 378.442 208.863 365.439 208.863C352.436 208.863 341.449 218.504 339.759 231.396L339.573 232.692ZM388.573 230.378H342.211C344.321 219.239 354.055 211.176 365.392 211.176C376.729 211.176 386.463 219.239 388.573 230.378Z" fill="#00005A"/>
<path fill-rule="evenodd" clip-rule="evenodd" d="M321.436 231.769C322.703 221.977 331.042 214.647 340.915 214.647C350.789 214.647 359.128 221.977 360.395 231.769H321.436Z" fill="#B8FFD2"/>
<path fill-rule="evenodd" clip-rule="evenodd" d="M320.14 232.923H361.782L361.599 231.628C360.256 221.255 351.422 213.491 340.962 213.491C330.503 213.491 321.669 221.255 320.326 231.628L320.14 232.923ZM359.099 230.612H322.824C324.585 221.995 332.166 215.807 340.962 215.807C349.757 215.807 357.338 221.995 359.099 230.612Z" fill="#00005A"/>
<path fill-rule="evenodd" clip-rule="evenodd" d="M32.2505 231.535C33.8653 219.224 44.3571 210.019 56.7733 210.019C69.1895 210.019 79.6814 219.224 81.2962 231.535H32.2505Z" fill="#85E28E"/>
<path fill-rule="evenodd" clip-rule="evenodd" d="M30.9546 232.692H82.6379L82.5002 231.396C80.8105 218.504 69.8233 208.863 56.8204 208.863C43.8176 208.863 32.8304 218.504 31.1407 231.396L30.9546 232.692ZM79.954 230.378H33.592C35.7025 219.24 45.4365 211.177 56.773 211.177C68.1096 211.177 77.8435 219.24 79.954 230.378Z" fill="#00005A"/>
<path fill-rule="evenodd" clip-rule="evenodd" d="M56.6338 231.769C57.9024 221.978 66.2409 214.65 76.1133 214.65C85.9858 214.65 94.3243 221.978 95.5929 231.769H56.6338Z" fill="#B8FFD2"/>
<path fill-rule="evenodd" clip-rule="evenodd" d="M55.3384 232.923H96.9802L96.7969 231.628C95.4542 221.255 86.6202 213.491 76.1607 213.491C65.7012 213.491 56.8671 221.255 55.5245 231.628L55.3384 232.923ZM94.2975 230.612H58.0222C59.7835 221.995 67.3646 215.807 76.1599 215.807C84.9551 215.807 92.5362 221.995 94.2975 230.612Z" fill="#00005A"/>
<path fill-rule="evenodd" clip-rule="evenodd" d="M208.352 88.2379L208.445 88.1914H209.833L209.926 88.2845L153.893 149.221L153.014 148.481H154.17V232.692L153.014 231.535H264.061L262.904 232.692V148.481H264.061L263.228 149.221L208.352 88.2379Z" fill="#D8EDFF"/>
<path fill-rule="evenodd" clip-rule="evenodd" d="M259.436 131.592V132.888L259.157 133.028L258.924 132.749L258.277 132.054V86.9422L259.433 88.0988H242.314L243.471 86.9422V114.334L243.191 113.547L259.436 131.592Z" fill="#00A6FF"/>
<path fill-rule="evenodd" clip-rule="evenodd" d="M241.157 115.245L260.591 136.358V86.9422H241.157V115.245ZM258.279 130.481L243.469 114.385L243.471 89.2029H258.279V130.481Z" fill="#00005A"/>
<path fill-rule="evenodd" clip-rule="evenodd" d="M248.791 77.6884H252.956C256.53 77.6976 259.425 80.5922 259.436 84.1664V89.256H242.313V84.1664C242.324 80.5929 245.218 77.6986 248.791 77.6884V77.6884Z" fill="#D8EDFF"/>
<path fill-rule="evenodd" clip-rule="evenodd" d="M241.157 90.4126H260.591V84.1664C260.587 79.9516 257.171 76.5358 252.956 76.5317H248.792C244.577 76.5358 241.161 79.9516 241.157 84.1664V90.4126ZM258.279 88.0993H243.468L243.473 84.1663C243.489 81.2345 245.862 78.8618 248.794 78.8455H252.958C255.89 78.8618 258.263 81.2345 258.279 84.1663V88.0993Z" fill="#00005A"/>
<path d="M210.297 150.698C219.187 149.722 225.603 141.724 224.628 132.834C223.652 123.943 215.654 117.527 206.763 118.503C197.873 119.479 191.457 127.477 192.432 136.368C193.408 145.258 201.407 151.674 210.297 150.698Z" fill="#BEF5FF"/>
<path fill-rule="evenodd" clip-rule="evenodd" d="M191.187 134.6C191.187 125.017 198.955 117.249 208.537 117.249C218.12 117.249 225.888 125.017 225.888 134.6C225.889 144.182 218.121 151.951 208.538 151.951C198.957 151.947 191.19 144.181 191.187 134.6ZM207.381 149.593V135.988H193.564C194.256 143.276 200.083 149.014 207.381 149.593ZM223.513 135.988C222.821 143.276 216.993 149.015 209.694 149.593V135.988H223.513ZM223.547 133.673C223.069 126.192 217.167 120.199 209.694 119.607V133.673H223.547ZM207.38 119.607V133.673H193.528C194.006 126.192 199.908 120.199 207.38 119.607Z" fill="#00005A"/>
<rect x="186.791" y="224.363" width="43.956" height="7.40289" fill="#EBFFFF"/>
<path fill-rule="evenodd" clip-rule="evenodd" d="M185.634 231.627H231.904V224.363H185.634V231.627ZM229.589 230.33H187.947V225.66H229.589V230.33Z" fill="#00005A"/>
<path fill-rule="evenodd" clip-rule="evenodd" d="M151.856 232.923H265.217V147.092L209.138 84.7675L151.856 147.092V232.923ZM262.904 230.61H154.17V147.972L209.138 88.1914L262.904 147.972V230.61Z" fill="#00005A"/>
<g opacity="0.06">
<rect x="145.518" y="152.413" width="7.49553" height="79.1213" fill="#00005A"/>
<path fill-rule="evenodd" clip-rule="evenodd" d="M145.425 231.627H153.153V152.275H145.425V231.627ZM152.874 231.394H145.61L145.611 152.507H152.874V231.394Z" fill="#373435"/>
</g>
<rect opacity="0.05" x="69.3584" y="152.414" width="83.6558" height="7.49553" fill="#00005A"/>
<g opacity="0.06">
<rect x="264.061" y="152.413" width="7.4955" height="79.1213" fill="#00005A"/>
<path fill-rule="evenodd" clip-rule="evenodd" d="M263.969 231.627H271.696V152.275H263.969V231.627ZM271.464 231.394H264.2L264.201 152.507H271.464V231.394Z" fill="#373435"/>
</g>
<g opacity="0.06">
<rect x="263.136" y="152.414" width="83.6098" height="7.49553" fill="#00005A"/>
<path fill-rule="evenodd" clip-rule="evenodd" d="M263.043 160.048H346.885V152.321H263.043V160.048ZM346.651 159.815H263.275V152.553H346.651V159.815Z" fill="#373435"/>
</g>
<rect x="82.2212" y="163.75" width="22.2093" height="35.6278" fill="#BEF5FF"/>
<path fill-rule="evenodd" clip-rule="evenodd" d="M81.0645 200.534V162.593H105.588V200.534H81.0645ZM103.274 198.221V191.272C103.227 191.278 103.181 191.28 103.134 191.28H94.4801V198.162V198.221H103.274ZM92.1716 198.221H83.378L83.3761 191.258C83.4527 191.273 83.5307 191.28 83.6087 191.28H92.1716V198.162V198.221ZM83.378 188.989C83.4546 188.974 83.5325 188.966 83.6106 188.966H92.1716V183.414H83.6087C83.5307 183.414 83.4527 183.407 83.3761 183.392L83.378 188.989ZM103.274 188.974C103.228 188.969 103.182 188.966 103.135 188.966H94.4809V183.414H103.135C103.182 183.414 103.228 183.412 103.274 183.406V188.974ZM83.378 181.123C83.4546 181.108 83.5325 181.101 83.6106 181.101H92.1716V174.623H83.6087C83.5307 174.623 83.4527 174.616 83.3761 174.601L83.378 181.123ZM103.274 181.109C103.228 181.104 103.182 181.101 103.135 181.101H94.4809V174.623H103.135C103.182 174.623 103.228 174.62 103.274 174.615V181.109ZM83.3781 172.332C83.4547 172.317 83.5327 172.309 83.6107 172.309H92.1717V164.907H83.3781V172.332ZM103.275 172.317C103.228 172.312 103.182 172.309 103.135 172.309H94.4825V164.907H103.275V172.317Z" fill="#00005A"/>
<path fill-rule="evenodd" clip-rule="evenodd" d="M83.8407 198.221H103.274C104.806 198.225 106.046 199.465 106.05 200.997V202.385C106.046 203.916 104.806 205.157 103.274 205.161H83.8407C82.3092 205.157 81.0688 203.916 81.0645 202.385V200.997C81.0688 199.465 82.3092 198.225 83.8407 198.221V198.221Z" fill="#EBFFFF"/>
<path fill-rule="evenodd" clip-rule="evenodd" d="M83.8411 207.475H103.275C104.626 207.479 105.923 206.944 106.878 205.988C107.833 205.033 108.368 203.736 108.364 202.385V200.997C108.368 199.646 107.833 198.349 106.878 197.394C105.922 196.439 104.626 195.904 103.275 195.907H83.8411C82.49 195.904 81.1931 196.439 80.2378 197.394C79.2825 198.349 78.7475 199.646 78.7515 200.997V202.385C78.7476 203.736 79.2826 205.033 80.238 205.988C81.1933 206.944 82.4901 207.479 83.8411 207.475ZM81.0651 200.997C81.0695 199.466 82.3099 198.226 83.8414 198.221H103.275C104.806 198.226 106.047 199.466 106.051 200.997V202.385C106.047 203.917 104.806 205.157 103.275 205.162H83.8414C82.3099 205.157 81.0695 203.917 81.0651 202.385V200.997Z" fill="#00005A"/>
<path opacity="0.05" fill-rule="evenodd" clip-rule="evenodd" d="M83.8411 201.691H103.275C104.318 201.69 105.319 202.104 106.057 202.842C106.794 203.579 107.208 204.58 107.208 205.624V207.012C107.208 208.055 106.794 209.056 106.057 209.793C105.319 210.531 104.318 210.945 103.275 210.944H83.8411C82.7978 210.945 81.7969 210.531 81.0592 209.793C80.3214 209.056 79.9073 208.055 79.9082 207.012V205.624C79.9073 204.58 80.3214 203.579 81.0592 202.842C81.7969 202.104 82.7978 201.69 83.8411 201.691Z" fill="#00005A"/>
<rect x="278.867" y="163.75" width="22.2092" height="35.6278" fill="#BEF5FF"/>
<path fill-rule="evenodd" clip-rule="evenodd" d="M277.71 200.534V162.593H302.233V200.534H277.71ZM299.92 198.221V191.272C299.873 191.278 299.827 191.28 299.78 191.28H291.126V198.162V198.221H299.92ZM288.817 198.221H280.024L280.022 191.258C280.099 191.273 280.177 191.28 280.255 191.28H288.817V198.162V198.221ZM280.024 188.989C280.1 188.974 280.178 188.966 280.256 188.966H288.817V183.414H280.255C280.177 183.414 280.099 183.407 280.022 183.392L280.024 188.989ZM299.92 188.974C299.874 188.969 299.827 188.966 299.781 188.966H291.127V183.414H299.781C299.827 183.414 299.874 183.412 299.92 183.406V188.974ZM280.024 181.123C280.1 181.108 280.178 181.101 280.256 181.101H288.817V174.623H280.255C280.177 174.623 280.099 174.616 280.022 174.601L280.024 181.123ZM299.92 181.109C299.874 181.104 299.827 181.101 299.781 181.101H291.127V174.623H299.781C299.827 174.623 299.874 174.62 299.92 174.615V181.109ZM280.024 172.332C280.101 172.317 280.179 172.309 280.257 172.309H288.818V164.907H280.024V172.332ZM299.92 172.317C299.874 172.312 299.827 172.309 299.781 172.309H291.128V164.907H299.92V172.317Z" fill="#00005A"/>
<path fill-rule="evenodd" clip-rule="evenodd" d="M280.486 198.221H299.92C301.451 198.225 302.692 199.465 302.696 200.997V202.385C302.692 203.916 301.451 205.157 299.92 205.161H280.486C278.955 205.157 277.714 203.916 277.71 202.385V200.997C277.714 199.465 278.955 198.225 280.486 198.221V198.221Z" fill="#EBFFFF"/>
<path fill-rule="evenodd" clip-rule="evenodd" d="M280.487 207.475H299.92C301.271 207.479 302.568 206.944 303.523 205.988C304.479 205.033 305.014 203.736 305.01 202.385V200.997C305.014 199.646 304.479 198.349 303.523 197.394C302.568 196.439 301.271 195.904 299.92 195.907H280.487C279.135 195.904 277.839 196.439 276.883 197.394C275.928 198.349 275.393 199.646 275.397 200.997V202.385C275.393 203.736 275.928 205.033 276.883 205.988C277.839 206.944 279.136 207.479 280.487 207.475ZM277.711 200.997C277.715 199.466 278.955 198.226 280.487 198.221H299.92C301.452 198.226 302.692 199.466 302.696 200.997V202.385C302.692 203.917 301.452 205.157 299.92 205.162H280.487C278.955 205.157 277.715 203.917 277.711 202.385V200.997Z" fill="#00005A"/>
<path opacity="0.05" fill-rule="evenodd" clip-rule="evenodd" d="M280.487 201.691H299.92C300.963 201.69 301.964 202.104 302.702 202.842C303.44 203.579 303.854 204.58 303.853 205.624V207.012C303.854 208.055 303.44 209.056 302.702 209.793C301.964 210.531 300.963 210.945 299.92 210.944H280.487C279.443 210.945 278.442 210.531 277.705 209.793C276.967 209.056 276.553 208.055 276.554 207.012V205.624C276.553 204.58 276.967 203.579 277.705 202.842C278.442 202.104 279.443 201.69 280.487 201.691Z" fill="#00005A"/>
<rect x="312.181" y="163.75" width="22.2093" height="35.6278" fill="#BEF5FF"/>
<path fill-rule="evenodd" clip-rule="evenodd" d="M311.024 200.534V162.593H335.547V200.534H311.024ZM333.233 198.221V191.272C333.187 191.278 333.141 191.28 333.094 191.28H324.44V198.162V198.221H333.233ZM322.131 198.221H313.338L313.336 191.258C313.412 191.273 313.49 191.28 313.568 191.28H322.131V198.162V198.221ZM313.338 188.989C313.414 188.974 313.492 188.966 313.57 188.966H322.131V183.414H313.568C313.49 183.414 313.412 183.407 313.336 183.392L313.338 188.989ZM333.234 188.974C333.188 188.969 333.141 188.966 333.095 188.966H324.441V183.414H333.095C333.141 183.414 333.188 183.412 333.234 183.406V188.974ZM313.338 181.123C313.414 181.108 313.492 181.101 313.57 181.101H322.131V174.623H313.568C313.49 174.623 313.412 174.616 313.336 174.601L313.338 181.123ZM333.234 181.109C333.188 181.104 333.141 181.101 333.095 181.101H324.441V174.623H333.095C333.141 174.623 333.188 174.62 333.234 174.615V181.109ZM313.338 172.332C313.414 172.317 313.492 172.309 313.57 172.309H322.131V164.907H313.338V172.332ZM333.234 172.317C333.188 172.312 333.141 172.309 333.095 172.309H324.442V164.907H333.234V172.317Z" fill="#00005A"/>
<path fill-rule="evenodd" clip-rule="evenodd" d="M313.8 198.221H333.234C334.765 198.225 336.006 199.465 336.01 200.997V202.385C336.006 203.916 334.765 205.157 333.234 205.161H313.8C312.269 205.157 311.028 203.916 311.024 202.385V200.997C311.028 199.465 312.269 198.225 313.8 198.221V198.221Z" fill="#EBFFFF"/>
<path fill-rule="evenodd" clip-rule="evenodd" d="M313.801 207.475H333.234C334.585 207.479 335.882 206.944 336.837 205.988C337.793 205.033 338.328 203.736 338.324 202.385V200.997C338.328 199.646 337.793 198.349 336.837 197.394C335.882 196.439 334.585 195.904 333.234 195.907H313.801C312.449 195.904 311.153 196.439 310.197 197.394C309.242 198.349 308.707 199.646 308.711 200.997V202.385C308.707 203.736 309.242 205.033 310.197 205.988C311.153 206.944 312.45 207.479 313.801 207.475ZM311.024 200.997C311.028 199.466 312.269 198.226 313.8 198.221H333.234C334.765 198.226 336.006 199.466 336.01 200.997V202.385C336.006 203.917 334.765 205.157 333.234 205.162H313.8C312.269 205.157 311.028 203.917 311.024 202.385V200.997Z" fill="#00005A"/>
<path opacity="0.05" fill-rule="evenodd" clip-rule="evenodd" d="M313.801 201.691H333.234C334.277 201.69 335.278 202.104 336.016 202.842C336.754 203.579 337.168 204.58 337.167 205.624V207.012C337.168 208.055 336.754 209.056 336.016 209.793C335.278 210.531 334.277 210.945 333.234 210.944H313.801C312.757 210.945 311.756 210.531 311.019 209.793C310.281 209.056 309.867 208.055 309.868 207.012V205.624C309.867 204.58 310.281 203.579 311.019 202.842C311.756 202.104 312.757 201.69 313.801 201.691Z" fill="#00005A"/>
<rect x="115.535" y="163.75" width="22.2093" height="35.6278" fill="#BEF5FF"/>
<path fill-rule="evenodd" clip-rule="evenodd" d="M114.378 200.534V162.593H138.901V200.534H114.378ZM136.588 198.221V191.272C136.541 191.278 136.495 191.28 136.448 191.28H127.794V198.162V198.221H136.588ZM125.485 198.221H116.692L116.69 191.258C116.767 191.273 116.845 191.28 116.923 191.28H125.485V198.162V198.221ZM116.692 188.989C116.768 188.974 116.846 188.966 116.924 188.966H125.485V183.414H116.923C116.845 183.414 116.767 183.407 116.69 183.392L116.692 188.989ZM136.588 188.974C136.542 188.969 136.495 188.966 136.449 188.966H127.795V183.414H136.449C136.495 183.414 136.542 183.412 136.588 183.406V188.974ZM116.692 181.123C116.768 181.108 116.846 181.101 116.924 181.101H125.485V174.623H116.923C116.845 174.623 116.767 174.616 116.69 174.601L116.692 181.123ZM136.588 181.109C136.542 181.104 136.495 181.101 136.449 181.101H127.795V174.623H136.449C136.495 174.623 136.542 174.62 136.588 174.615V181.109ZM116.692 172.332C116.769 172.317 116.847 172.309 116.925 172.309H125.486V164.907H116.692V172.332ZM136.588 172.317C136.542 172.312 136.495 172.309 136.449 172.309H127.796V164.907H136.588V172.317Z" fill="#00005A"/>
<path fill-rule="evenodd" clip-rule="evenodd" d="M117.154 198.221H136.588C138.119 198.225 139.36 199.465 139.364 200.997V202.385C139.36 203.916 138.119 205.157 136.588 205.161H117.154C115.623 205.157 114.382 203.916 114.378 202.385V200.997C114.382 199.465 115.623 198.225 117.154 198.221V198.221Z" fill="#EBFFFF"/>
<path fill-rule="evenodd" clip-rule="evenodd" d="M117.155 207.475H136.588C137.939 207.479 139.236 206.944 140.191 205.988C141.147 205.033 141.682 203.736 141.678 202.385V200.997C141.681 199.646 141.146 198.349 140.191 197.394C139.236 196.439 137.939 195.904 136.588 195.907H117.155C115.803 195.904 114.507 196.439 113.551 197.394C112.596 198.349 112.061 199.646 112.065 200.997V202.385C112.061 203.736 112.596 205.033 113.551 205.988C114.507 206.944 115.804 207.479 117.155 207.475ZM114.378 200.997C114.383 199.466 115.623 198.226 117.155 198.221H136.588C138.12 198.226 139.36 199.466 139.364 200.997V202.385C139.36 203.917 138.12 205.157 136.588 205.162H117.155C115.623 205.157 114.383 203.917 114.378 202.385V200.997Z" fill="#00005A"/>
<path opacity="0.05" fill-rule="evenodd" clip-rule="evenodd" d="M117.155 201.691H136.588C137.631 201.69 138.632 202.104 139.37 202.842C140.108 203.579 140.522 204.58 140.521 205.624V207.012C140.522 208.055 140.108 209.056 139.37 209.793C138.632 210.531 137.631 210.945 136.588 210.944H117.155C116.111 210.945 115.11 210.531 114.373 209.793C113.635 209.056 113.221 208.055 113.222 207.012V205.624C113.221 204.58 113.635 203.579 114.373 202.842C115.11 202.104 116.111 201.69 117.155 201.691Z" fill="#00005A"/>
<path fill-rule="evenodd" clip-rule="evenodd" d="M144.546 144.64L203.264 81.6674C204.837 79.9965 207.465 79.9133 209.14 81.4813L214.97 86.8947L153.43 152.923C152.337 154.104 150.816 154.798 149.208 154.851C147.599 154.903 146.037 154.309 144.869 153.202C142.419 150.925 142.275 147.095 144.546 144.64Z" fill="#FEFEFE"/>
<path fill-rule="evenodd" clip-rule="evenodd" d="M142.392 151.638C143.535 154.265 146.123 155.968 148.988 155.977C150.982 155.97 152.887 155.151 154.264 153.708L216.636 86.8021L209.973 80.6019C207.804 78.6197 204.447 78.744 202.431 80.8811L143.714 143.854C141.768 145.957 141.249 149.011 142.392 151.638ZM144.241 150.224C143.732 148.536 144.167 146.706 145.379 145.427L204.049 82.4551C205.194 81.26 207.085 81.198 208.306 82.3155L213.303 86.9426L152.551 152.136C151.356 153.431 149.558 153.986 147.841 153.591C146.124 153.196 144.75 151.911 144.241 150.224Z" fill="#00005A"/>
<path fill-rule="evenodd" clip-rule="evenodd" d="M273.315 143.993L212.054 79.5392C210.481 77.8683 207.853 77.7851 206.178 79.3531L200.348 84.768L264.477 152.275C265.571 153.456 267.091 154.15 268.7 154.203C270.308 154.255 271.871 153.662 273.038 152.554C274.219 151.461 274.913 149.94 274.965 148.331C275.017 146.723 274.423 145.16 273.315 143.993Z" fill="#FEFEFE"/>
<path fill-rule="evenodd" clip-rule="evenodd" d="M263.644 153.016C265.004 154.488 266.915 155.326 268.919 155.329H268.92C271.786 155.32 274.374 153.618 275.517 150.991C276.66 148.364 276.142 145.309 274.195 143.207L212.886 78.7543C210.88 76.5961 207.505 76.4711 205.344 78.4752L198.682 84.7214L263.644 153.016ZM265.309 151.489L201.967 84.814L206.964 80.1864C207.546 79.6387 208.323 79.3456 209.121 79.3718C209.92 79.398 210.676 79.7414 211.221 80.326L272.48 144.78C273.693 146.058 274.127 147.889 273.618 149.576C273.109 151.263 271.736 152.548 270.018 152.944C268.301 153.339 266.504 152.784 265.309 151.489Z" fill="#00005A"/>
<path fill-rule="evenodd" clip-rule="evenodd" d="M280.024 50.4816C281.642 50.48 283.246 50.7944 284.744 51.407C287.372 47.144 292.511 45.1444 297.329 46.5103C302.147 47.8762 305.473 52.2754 305.472 57.2834C305.48 57.6079 305.464 57.9326 305.426 58.2549C306.401 57.8842 307.436 57.696 308.479 57.6998C312.524 57.7083 316.04 60.4785 316.994 64.4091C318.906 62.3776 321.905 61.7984 324.436 62.9714C326.968 64.1444 328.464 66.8061 328.151 69.5786C327.837 72.351 325.785 74.6116 323.055 75.1899L323.009 75.3294H280.995C280.317 75.3911 279.636 75.3911 278.958 75.3294C272.321 74.7539 267.314 69.0536 267.599 62.3974C267.884 55.7412 273.36 50.4899 280.023 50.4839L280.024 50.4816Z" fill="#E3F3F7"/>
<path fill-rule="evenodd" clip-rule="evenodd" d="M115.119 47.7979C116.738 47.7963 118.341 48.1107 119.839 48.7234C122.467 44.4603 127.607 42.4608 132.425 43.8267C137.243 45.1926 140.568 49.5917 140.568 54.5997C140.576 54.9243 140.56 55.2489 140.521 55.5712C141.497 55.2005 142.532 55.0123 143.575 55.0162C147.62 55.0244 151.135 57.7948 152.089 61.7254C154.002 59.694 157 59.1149 159.532 60.2878C162.063 61.4607 163.559 64.1223 163.246 66.8947C162.933 69.667 160.88 71.9277 158.151 72.5062L158.105 72.6458H116.137C115.46 72.7075 114.778 72.7075 114.101 72.6458C107.472 72.0717 102.467 66.385 102.739 59.7366C103.012 53.0882 108.465 47.8301 115.119 47.8003L115.119 47.7979Z" fill="#E3F3F7"/>
<path fill-rule="evenodd" clip-rule="evenodd" d="M186.189 6.38691C188.523 6.37592 190.835 6.83216 192.99 7.72875C196.821 1.53356 204.298 -1.36797 211.306 0.620655C218.313 2.60928 223.151 9.00542 223.158 16.2897C223.158 16.7522 223.158 17.2152 223.111 17.6776C226.525 16.4219 230.312 16.678 233.526 18.3821C236.74 20.0861 239.077 23.077 239.954 26.6076C242.712 23.6794 247.034 22.8445 250.684 24.535C254.334 26.2255 256.492 30.062 256.042 34.0592C255.592 38.0563 252.635 41.3172 248.701 42.1542L248.654 42.3403H187.67C187.208 42.3868 186.699 42.3868 186.19 42.3868C185.681 42.3868 185.218 42.3868 184.709 42.3403C175.083 41.5493 167.796 33.3043 168.193 23.6539C168.591 14.0036 176.531 6.38562 186.19 6.38877L186.189 6.38691Z" fill="#E3F3F7"/>
<path fill-rule="evenodd" clip-rule="evenodd" d="M208.769 165.138C220.902 165.149 230.736 174.982 230.747 187.116V224.363H186.791V187.116C186.802 174.982 196.635 165.149 208.769 165.138V165.138Z" fill="#7CC4FA"/>
<path fill-rule="evenodd" clip-rule="evenodd" d="M185.634 225.52V187.116C185.634 174.339 195.992 163.981 208.768 163.981C221.545 163.981 231.903 174.339 231.903 187.116V225.52H185.634ZM229.59 223.206V187.116C229.572 176.162 221.085 167.088 210.156 166.34V223.043C210.156 223.097 210.153 223.152 210.146 223.206H229.59ZM187.947 223.206V187.116C187.964 175.984 196.722 166.827 207.843 166.315V223.043C207.843 223.098 207.847 223.152 207.854 223.206H187.947Z" fill="#00005A"/>
<path d="M201.967 200.349C203.117 200.349 204.049 199.417 204.049 198.267C204.049 197.117 203.117 196.185 201.967 196.185C200.817 196.185 199.885 197.117 199.885 198.267C199.885 199.417 200.817 200.349 201.967 200.349Z" fill="#00005A"/>
<path d="M215.848 200.349C216.998 200.349 217.93 199.417 217.93 198.267C217.93 197.117 216.998 196.185 215.848 196.185C214.698 196.185 213.766 197.117 213.766 198.267C213.766 199.417 214.698 200.349 215.848 200.349Z" fill="#00005A"/>
</svg>
