<svg xmlns="http://www.w3.org/2000/svg" width="47.381" height="47.385" viewBox="0 0 47.381 47.385"><defs><style>.a{fill:#131f44;}</style></defs><path class="a" d="M32.793-19.686a12.233,12.233,0,0,0-3.723-8.976,12.473,12.473,0,0,0-9.027-3.774,11.958,11.958,0,0,0-9.027,3.774,12.455,12.455,0,0,0-3.723,8.976,12.627,12.627,0,0,0,3.723,9.027,11.557,11.557,0,0,0,9.027,3.723,13.143,13.143,0,0,0,9.027-3.723A11.974,11.974,0,0,0,32.793-19.686ZM47.379,4.029a3.406,3.406,0,0,1-1.122,2.55,3.653,3.653,0,0,1-2.6,1.071,3.318,3.318,0,0,1-2.5-1.071L31.416-3.162A19.572,19.572,0,0,1,20.043.357a19.761,19.761,0,0,1-7.8-1.581A19.482,19.482,0,0,1,5.865-5.508a21.434,21.434,0,0,1-4.284-6.375A18.425,18.425,0,0,1,0-19.686a20.368,20.368,0,0,1,1.581-7.752,20.457,20.457,0,0,1,4.284-6.426,18.818,18.818,0,0,1,6.375-4.284,21.869,21.869,0,0,1,7.8-1.581,17.262,17.262,0,0,1,7.8,1.581,23.834,23.834,0,0,1,6.375,4.284,17.774,17.774,0,0,1,4.284,6.426,21.477,21.477,0,0,1,1.581,7.752A19.572,19.572,0,0,1,36.567-8.313l9.741,9.741A3.541,3.541,0,0,1,47.379,4.029Z" transform="translate(0.002 39.735)"/></svg>