<svg width="17" height="17" viewBox="0 0 17 17" fill="none" xmlns="http://www.w3.org/2000/svg">
<path d="M8.71484 15.7971C6.84534 15.7971 5.08783 15.0726 3.76583 13.7571C2.44332 12.4406 1.71484 10.6906 1.71484 8.82812C1.71484 6.96611 2.44335 5.21562 3.76535 3.89961C5.08735 2.58412 6.84485 1.85962 8.71436 1.85962C10.5839 1.85962 12.3414 2.58412 13.6629 3.89961C14.9859 5.21562 15.7138 6.96611 15.7138 8.82761C15.7144 10.6901 14.9859 12.4406 13.6629 13.7566C12.3419 15.0721 10.5844 15.7971 8.71484 15.7971ZM8.71484 2.85908C7.11135 2.85908 5.60435 3.48007 4.47135 4.60809C3.33885 5.73509 2.71484 7.23408 2.71484 8.82809C2.71484 10.4221 3.33834 11.9211 4.47084 13.0476C5.60384 14.1756 7.11084 14.7966 8.71433 14.7966C10.3173 14.7966 11.8248 14.1756 12.9578 13.0476C14.0903 11.9201 14.7143 10.4216 14.7138 8.82758C14.7138 7.23357 14.0903 5.73509 12.9578 4.60858C11.8253 3.48058 10.3179 2.85908 8.71484 2.85908Z" fill="#DC5674"/>
<path d="M12.2149 8.32814H9.21486V5.32814C9.21486 5.05213 8.99086 4.82812 8.71484 4.82812C8.43883 4.82812 8.21483 5.05213 8.21483 5.32814V8.32814H5.21486C4.93885 8.32814 4.71484 8.55214 4.71484 8.82815C4.71484 9.10416 4.93885 9.32817 5.21486 9.32817H8.21486V12.3282C8.21486 12.6047 8.43886 12.8282 8.71487 12.8282C8.99088 12.8282 9.21488 12.6047 9.21488 12.3282V9.32814H12.2149C12.4914 9.32814 12.7149 9.10414 12.7149 8.82812C12.7149 8.55211 12.4914 8.32814 12.2149 8.32814Z" fill="#DC5674"/>
</svg>
