<svg width="16" height="16" viewBox="0 0 16 16" fill="none" xmlns="http://www.w3.org/2000/svg">
<circle cx="8" cy="8" r="8" fill="#20B765"/>
<g clip-path="url(#clip0_540_664)">
<path fill-rule="evenodd" clip-rule="evenodd" d="M6.5 11.3449C6.166 11.3449 5.852 11.2149 5.616 10.9789L3.1465 8.5089C2.951 8.3139 2.951 7.9974 3.1465 7.8019C3.342 7.6064 3.658 7.6064 3.8535 7.8019L6.323 10.2719C6.387 10.3354 6.4615 10.3449 6.5 10.3449C6.5385 10.3449 6.613 10.3354 6.6765 10.2719L12.1465 4.8019C12.342 4.6064 12.658 4.6064 12.8535 4.8019C13.049 4.9974 13.049 5.3134 12.8535 5.5089L7.384 10.9789C7.148 11.2149 6.834 11.3449 6.5 11.3449Z" fill="white"/>
</g>
<defs>
<clipPath id="clip0_540_664">
<rect width="12" height="12" fill="white" transform="translate(2 2)"/>
</clipPath>
</defs>
</svg>
