<svg width="16" height="16" viewBox="0 0 16 16" fill="none" xmlns="http://www.w3.org/2000/svg">
<circle cx="8" cy="8" r="8" fill="#E02626"/>
<g clip-path="url(#clip0_540_679)">
<g clip-path="url(#clip1_540_679)">
<path fill-rule="evenodd" clip-rule="evenodd" d="M4.8535 4.14662L7.99988 7.293L11.1465 4.14662C11.342 3.95112 11.658 3.95112 11.8535 4.14662C12.049 4.34212 12.049 4.65812 11.8535 4.85362L8.70688 8L11.8535 11.1466C12.049 11.3421 12.049 11.6581 11.8535 11.8536C11.756 11.9511 11.628 12.0001 11.5 12.0001C11.372 12.0001 11.244 11.9511 11.1465 11.8536L7.99988 8.707L4.8535 11.8536C4.756 11.9511 4.628 12.0001 4.5 12.0001C4.372 12.0001 4.244 11.9511 4.1465 11.8536C3.951 11.6581 3.951 11.3421 4.1465 11.1466L7.29288 8L4.1465 4.85362C3.951 4.65812 3.951 4.34212 4.1465 4.14662C4.342 3.95112 4.658 3.95112 4.8535 4.14662Z" fill="white"/>
</g>
</g>
<defs>
<clipPath id="clip0_540_679">
<rect width="12" height="12" fill="white" transform="translate(2 2)"/>
</clipPath>
<clipPath id="clip1_540_679">
<rect width="12" height="12" fill="white" transform="translate(2 2)"/>
</clipPath>
</defs>
</svg>
