<svg width="16" height="20" viewBox="0 0 16 20" fill="none" xmlns="http://www.w3.org/2000/svg">
<path fill-rule="evenodd" clip-rule="evenodd" d="M8.02047 0.00651626C12.3235 0.0345163 15.8165 3.55152 15.8165 7.84452C15.8165 13.4715 9.65047 18.8415 8.58447 19.7285C8.46647 19.8225 8.23447 19.9935 7.98147 19.9935C7.72947 19.9935 7.48647 19.7935 7.38947 19.7055C6.24947 18.7535 0.183472 13.4235 0.183472 7.84452C0.183472 3.55752 3.66647 0.0465162 7.95247 0.00751618C7.97447 0.00551618 7.99847 0.00551626 8.02047 0.00651626ZM8.02247 5.34452C6.64247 5.34452 5.52247 6.46352 5.52247 7.84452C5.52247 9.22452 6.64247 10.3445 8.02247 10.3445C9.40347 10.3445 10.5225 9.22452 10.5225 7.84452C10.5225 6.46352 9.40347 5.34452 8.02247 5.34452Z" fill="#0F1B43" fill-opacity="0.6"/>
</svg>
