<svg width="12" height="14" viewBox="0 0 12 14" fill="none" xmlns="http://www.w3.org/2000/svg">
<path fill-rule="evenodd" clip-rule="evenodd" d="M6.04704 0.334203L6.05059 0.334651L6.19217 0.337479C8.99641 0.442991 11.2474 2.76141 11.2474 5.58384C11.2474 7.92487 9.74599 10.2657 7.56097 12.3786C7.36246 12.5706 7.04592 12.5653 6.85396 12.3667C6.662 12.1682 6.66731 11.8517 6.86582 11.6597C8.87066 9.72105 10.2474 7.57461 10.2474 5.58384C10.2474 3.25599 8.35123 1.34873 6.0202 1.33383L6.01526 1.33332L5.98642 1.33428C3.66347 1.35515 1.77452 3.26072 1.77393 5.58373C1.77366 6.9576 2.50969 8.52088 3.77391 10.1378C4.62083 11.2211 5.60397 12.1991 6.32505 12.8012C6.53702 12.9781 6.56538 13.2935 6.3884 13.5054C6.21142 13.7174 5.89611 13.7458 5.68414 13.5688C4.91266 12.9246 3.88094 11.8983 2.98611 10.7538C1.59709 8.97719 0.773604 7.22817 0.773926 5.58351C0.774663 2.71179 3.10582 0.360122 5.93217 0.336786L5.96874 0.333984L6.04704 0.334203ZM5.99986 3.39264C7.19667 3.39264 8.16653 4.36249 8.16653 5.5593C8.16653 6.75611 7.19667 7.72597 5.99986 7.72597C4.80305 7.72597 3.83319 6.75611 3.83319 5.5593C3.83319 4.36249 4.80305 3.39264 5.99986 3.39264ZM5.99986 4.39264C5.35534 4.39264 4.83319 4.91478 4.83319 5.5593C4.83319 6.20383 5.35534 6.72597 5.99986 6.72597C6.64438 6.72597 7.16653 6.20383 7.16653 5.5593C7.16653 4.91478 6.64438 4.39264 5.99986 4.39264Z" fill="#373F5F"/>
</svg>
