<svg width="30" height="29" viewBox="0 0 30 29" fill="none" xmlns="http://www.w3.org/2000/svg">
<path fill-rule="evenodd" clip-rule="evenodd" d="M20.7598 18.7679C21.1749 19.183 21.1749 19.8559 20.7598 20.271C20.553 20.4778 20.281 20.5812 20.009 20.5812C19.737 20.5812 19.465 20.4778 19.2568 20.271L14.9997 16.0139L10.7426 20.271C10.5343 20.4778 10.2623 20.5812 9.99034 20.5812C9.71976 20.5812 9.44776 20.4778 9.23951 20.271C8.82442 19.8559 8.82442 19.183 9.23951 18.7679L13.498 14.5108L9.23951 10.2523C8.82442 9.83723 8.82442 9.16573 9.23951 8.75065C9.65459 8.33557 10.3275 8.33557 10.7426 8.75065L14.9997 13.0091L19.2568 8.75065C19.6718 8.33557 20.3448 8.33557 20.7598 8.75065C21.1749 9.16573 21.1749 9.83723 20.7598 10.2523L16.5028 14.5108L20.7598 18.7679ZM14.9997 0.327148C7.17543 0.327148 0.833008 6.66957 0.833008 14.4938C0.833008 22.3181 7.17543 28.6605 14.9997 28.6605C22.8239 28.6605 29.1663 22.3181 29.1663 14.4938C29.1663 6.66957 22.8239 0.327148 14.9997 0.327148Z" fill="#0F1B43" fill-opacity="0.2"/>
</svg>
