<svg width="40" height="40" viewBox="0 0 40 40" fill="none" xmlns="http://www.w3.org/2000/svg">
<path d="M9.31427 3.56006H19.6758C20.2182 3.56006 20.7232 3.74709 21.1347 4.10245L28.3167 10.181C28.8217 10.6112 29.121 11.2471 29.121 11.9017V30.8106C29.121 33.5039 29.0835 33.6909 26.3155 33.6909H9.31427C6.5462 33.6909 6.50879 33.5039 6.50879 30.8106V6.45905C6.50879 3.74709 6.5462 3.56006 9.31427 3.56006ZM14.0462 20.1311C13.2232 20.1311 12.5312 20.8044 12.5499 21.6461C12.5499 22.469 13.2232 23.1423 14.0462 23.1423H24.5948C25.4177 23.1423 26.1097 22.469 26.1097 21.6273C26.1097 20.8044 25.4364 20.1124 24.5948 20.1124C24.5948 20.1311 14.0462 20.1311 14.0462 20.1311ZM14.0462 26.1535C13.2232 26.1535 12.5312 26.8268 12.5499 27.6685C12.5499 28.4914 13.2232 29.1647 14.0462 29.1647H18.5724C19.3953 29.1647 20.0873 28.4914 20.0686 27.6498C20.0686 26.8268 19.3953 26.1535 18.5724 26.1535H14.0462Z" fill="#DC5674" fill-opacity="0.3"/>
<path d="M12.325 6.57129H24.2015C24.7439 6.57129 25.2489 6.75832 25.6604 7.11368L32.8424 13.1922C33.3474 13.6224 33.6467 14.2583 33.6467 14.9129V33.8218C33.6467 36.5151 33.6093 36.7021 30.8412 36.7021H12.325C9.55694 36.7021 9.51953 36.5151 9.51953 33.8218V9.47028C9.51953 6.75832 9.55694 6.57129 12.325 6.57129ZM14.0457 26.1535C13.2228 26.1535 12.5307 26.8269 12.5494 27.6685C12.5494 28.4914 13.2228 29.1647 14.0457 29.1647H18.5719C19.3948 29.1647 20.0868 28.4914 20.0681 27.6498C20.0681 26.8269 19.3948 26.1535 18.5719 26.1535H14.0457Z" fill="#DC5674"/>
<path d="M14.0464 20.131C13.2235 20.131 12.5315 20.8043 12.5502 21.646C12.5502 22.4689 13.2235 23.1422 14.0464 23.1422H24.595C25.418 23.1422 26.11 22.4689 26.11 21.6273C26.11 20.8043 25.4367 20.1123 24.595 20.1123C24.595 20.131 14.0464 20.131 14.0464 20.131Z" fill="#FFB541"/>
</svg>
