<svg width="14" height="14" viewBox="0 0 14 14" fill="none" xmlns="http://www.w3.org/2000/svg">
<path fill-rule="evenodd" clip-rule="evenodd" d="M6.04411 0.305664C6.44164 0.305664 6.8234 0.463188 7.10433 0.744111L13.1065 6.74631C13.8869 7.52753 13.8869 8.7938 13.1063 9.57525L9.57212 13.1088C8.79091 13.8891 7.5253 13.8891 6.74389 13.1086L0.747219 7.11188C0.466087 6.83075 0.308105 6.4489 0.308105 6.051V1.887C0.308105 1.01337 1.01611 0.305664 1.89011 0.305664H6.04411ZM6.04411 1.30566H1.89011C1.5683 1.30566 1.30811 1.56575 1.30811 1.887V6.051C1.30811 6.18383 1.36084 6.31129 1.45433 6.40478L7.45079 12.4012C7.84157 12.7916 8.47464 12.7916 8.86525 12.4014L12.399 8.86831C12.7894 8.47753 12.7894 7.8438 12.3992 7.45322L6.39722 1.45122C6.30418 1.35818 6.17691 1.30566 6.04411 1.30566ZM4.40365 2.66233L4.50659 2.66503C4.78235 2.67954 4.99414 2.91485 4.97962 3.19061C4.96632 3.44339 4.76748 3.64242 4.52203 3.66265L4.40365 3.66233C3.98267 3.66233 3.64165 4.0036 3.64165 4.425C3.64165 4.84701 3.9826 5.18833 4.40365 5.18833C4.79701 5.18833 5.12104 4.89064 5.1625 4.50818L5.16698 4.425C5.16698 4.41222 5.16665 4.40288 5.16491 4.36603C5.15145 4.09021 5.36414 3.85572 5.63995 3.84226C5.91577 3.82881 6.15027 4.04149 6.16372 4.31731L6.16698 4.425C6.16698 5.39895 5.37731 6.18833 4.40365 6.18833C3.43007 6.18833 2.64165 5.39905 2.64165 4.425C2.64165 3.45148 3.43022 2.66233 4.40365 2.66233Z" fill="#373F5F"/>
</svg>
