<svg width="22" height="22" viewBox="0 0 22 22" fill="none" xmlns="http://www.w3.org/2000/svg">
<path fill-rule="evenodd" clip-rule="evenodd" d="M11.0531 3.05375C16.0441 3.05375 20.1041 7.11375 20.1041 12.1047C20.1041 17.0957 16.0441 21.1558 11.0531 21.1558C6.06207 21.1558 2.00207 17.0957 2.00207 12.1047C2.00207 7.11375 6.06207 3.05375 11.0531 3.05375ZM11.0511 5.35475C10.6371 5.35475 10.3011 5.69075 10.3011 6.10475V12.1047C10.3011 12.3038 10.3801 12.4938 10.5201 12.6348L13.5201 15.6348C13.6671 15.7808 13.8581 15.8547 14.0511 15.8547C14.2431 15.8547 14.4351 15.7808 14.5811 15.6348C14.8741 15.3418 14.8741 14.8668 14.5811 14.5738L11.8011 11.7937V6.10475C11.8011 5.69075 11.4651 5.35475 11.0511 5.35475ZM5.0391 1.06832C5.30537 1.33459 5.32958 1.75125 5.11172 2.04486L5.0391 2.12898L1.9721 5.19598C1.67921 5.48887 1.20434 5.48887 0.911442 5.19598C0.645176 4.92971 0.62097 4.51305 0.838824 4.21944L0.911442 4.13532L3.97844 1.06832C4.27134 0.775427 4.74621 0.775427 5.0391 1.06832ZM17.9375 0.990802L18.0216 1.06342L21.0886 4.13042C21.3815 4.42331 21.3815 4.89819 21.0886 5.19108C20.8223 5.45735 20.4057 5.48155 20.1121 5.2637L20.0279 5.19108L16.9609 2.12408C16.668 1.83119 16.668 1.35631 16.9609 1.06342C17.2272 0.797153 17.6439 0.772947 17.9375 0.990802Z" fill="#0F1B43" fill-opacity="0.6"/>
</svg>
