<svg width="30" height="34" viewBox="0 0 30 34" fill="none" xmlns="http://www.w3.org/2000/svg">
<path fill-rule="evenodd" clip-rule="evenodd" d="M28.3327 24.0832C28.9655 24.0832 29.4885 24.5534 29.5713 25.1635L29.5827 25.3332V28.2498C29.5827 30.9132 27.5017 33.0893 24.8765 33.2413L24.5827 33.2498H5.41602C2.75377 33.2498 0.576621 31.1684 0.424506 28.5436L0.416016 28.2498V25.3332C0.416016 24.6428 0.97566 24.0832 1.66602 24.0832C2.29884 24.0832 2.82183 24.5534 2.9046 25.1635L2.91602 25.3332V28.2498C2.91602 29.5493 3.90786 30.6172 5.17531 30.7384L5.41602 30.7498H24.5827C25.8827 30.7498 26.9502 29.7589 27.0712 28.4907L27.0827 28.2498V25.3332C27.0827 24.6428 27.6423 24.0832 28.3327 24.0832ZM17.4366 1.64979L17.6516 1.8491L25.8832 10.0808C26.3714 10.5689 26.3714 11.3604 25.8832 11.8485C25.4395 12.2923 24.745 12.3327 24.2557 11.9696L24.1155 11.8485L16.2493 3.98185V25.4585C16.2493 26.1488 15.6897 26.7085 14.9993 26.7085C14.3665 26.7085 13.8435 26.2382 13.7608 25.6281L13.7493 25.4585V3.98185L5.88323 11.8485C5.39508 12.3367 4.60362 12.3367 4.11547 11.8485C3.67169 11.4048 3.63134 10.7103 3.99444 10.221L4.11547 10.0808L12.3471 1.8491C13.0772 1.11904 14.0338 0.752804 14.9908 0.750403L14.9892 0.750193C15.8627 0.748216 16.735 1.04801 17.4366 1.64979Z" fill="#DC5674"/>
</svg>
