<svg width="101" height="39" viewBox="0 0 101 39" fill="none" xmlns="http://www.w3.org/2000/svg">
<path d="M32.3434 29.3379C32.3434 29.7325 32.2527 30.0605 32.0714 30.3219C31.89 30.5779 31.6394 30.7699 31.3194 30.8979C30.9994 31.0259 30.6314 31.0899 30.2154 31.0899H28.9034C28.85 31.0899 28.8234 31.1165 28.8234 31.1699V33.3699C28.8234 33.4605 28.7754 33.5059 28.6794 33.5059H27.9834C27.9354 33.5059 27.9007 33.4979 27.8794 33.4819C27.8634 33.4605 27.8554 33.4285 27.8554 33.3859V27.6899C27.8554 27.6099 27.8927 27.5699 27.9674 27.5699H30.1034C30.5247 27.5699 30.9034 27.6312 31.2394 27.7539C31.5807 27.8765 31.85 28.0685 32.0474 28.3299C32.2447 28.5912 32.3434 28.9272 32.3434 29.3379ZM31.3514 29.3139C31.3514 29.0685 31.298 28.8712 31.1914 28.7219C31.0847 28.5672 30.9327 28.4552 30.7354 28.3859C30.5434 28.3165 30.314 28.2819 30.0474 28.2819H28.9434C28.8634 28.2819 28.8234 28.3192 28.8234 28.3939V30.2579C28.8234 30.3379 28.8527 30.3779 28.9114 30.3779H30.1034C30.482 30.3779 30.7834 30.2899 31.0074 30.1139C31.2367 29.9379 31.3514 29.6712 31.3514 29.3139ZM33.4253 33.5059C33.3826 33.5059 33.3506 33.4952 33.3293 33.4739C33.308 33.4525 33.2973 33.4205 33.2973 33.3779V29.3859C33.2973 29.3059 33.332 29.2659 33.4013 29.2659H34.0173C34.0813 29.2659 34.1133 29.3005 34.1133 29.3699V29.8739C34.1133 29.9059 34.1213 29.9245 34.1373 29.9299C34.1586 29.9352 34.18 29.9245 34.2013 29.8979C34.3346 29.7379 34.468 29.6072 34.6013 29.5059C34.74 29.3992 34.8786 29.3192 35.0173 29.2659C35.156 29.2125 35.2946 29.1859 35.4333 29.1859C35.62 29.1859 35.7133 29.2232 35.7133 29.2979V29.9219C35.7133 29.9859 35.684 30.0125 35.6253 30.0019C35.5613 29.9859 35.492 29.9752 35.4173 29.9699C35.348 29.9645 35.276 29.9619 35.2013 29.9619C35.0893 29.9619 34.972 29.9859 34.8493 30.0339C34.7266 30.0819 34.612 30.1485 34.5053 30.2339C34.404 30.3139 34.3186 30.4045 34.2493 30.5059C34.18 30.6072 34.1453 30.7112 34.1453 30.8179V33.3699C34.1453 33.4605 34.0946 33.5059 33.9933 33.5059H33.4253ZM38.1918 33.5859C37.7811 33.5859 37.4211 33.4952 37.1118 33.3139C36.8025 33.1272 36.5625 32.8712 36.3918 32.5459C36.2211 32.2152 36.1358 31.8365 36.1358 31.4099C36.1358 30.9672 36.2238 30.5805 36.3998 30.2499C36.5758 29.9139 36.8185 29.6525 37.1278 29.4659C37.4425 29.2792 37.7998 29.1859 38.1998 29.1859C38.6158 29.1859 38.9758 29.2819 39.2798 29.4739C39.5891 29.6605 39.8291 29.9219 39.9998 30.2579C40.1705 30.5885 40.2558 30.9699 40.2558 31.4019C40.2558 31.8285 40.1678 32.2072 39.9918 32.5379C39.8211 32.8632 39.5811 33.1192 39.2718 33.3059C38.9625 33.4925 38.6025 33.5859 38.1918 33.5859ZM38.2078 32.9859C38.4585 32.9859 38.6718 32.9219 38.8478 32.7939C39.0238 32.6659 39.1571 32.4845 39.2478 32.2499C39.3438 32.0099 39.3918 31.7219 39.3918 31.3859C39.3918 31.0499 39.3438 30.7619 39.2478 30.5219C39.1571 30.2819 39.0211 30.0979 38.8398 29.9699C38.6638 29.8365 38.4505 29.7699 38.1998 29.7699C37.9491 29.7699 37.7331 29.8365 37.5518 29.9699C37.3758 30.0979 37.2398 30.2819 37.1438 30.5219C37.0478 30.7619 36.9998 31.0499 36.9998 31.3859C36.9998 31.7219 37.0478 32.0099 37.1438 32.2499C37.2398 32.4845 37.3758 32.6659 37.5518 32.7939C37.7331 32.9219 37.9518 32.9859 38.2078 32.9859ZM44.5141 29.2659C44.5568 29.2659 44.5861 29.2792 44.6021 29.3059C44.6181 29.3325 44.6181 29.3645 44.6021 29.4019L42.9861 33.3699C42.9541 33.4605 42.8848 33.5059 42.7781 33.5059H42.4021C42.2955 33.5059 42.2235 33.4632 42.1861 33.3779L40.5781 29.4099C40.5675 29.3672 40.5701 29.3325 40.5861 29.3059C40.6075 29.2792 40.6395 29.2659 40.6821 29.2659H41.3461C41.3781 29.2659 41.4075 29.2765 41.4341 29.2979C41.4608 29.3139 41.4768 29.3379 41.4821 29.3699L42.6341 32.2659C42.6715 32.3672 42.7141 32.3645 42.7621 32.2579L43.8981 29.3619C43.9141 29.3352 43.9328 29.3139 43.9541 29.2979C43.9755 29.2765 44.0048 29.2659 44.0421 29.2659H44.5141ZM46.2156 33.3539C46.2156 33.4125 46.2023 33.4525 46.1756 33.4739C46.1543 33.4952 46.1143 33.5059 46.0556 33.5059H45.5116C45.453 33.5059 45.413 33.4979 45.3916 33.4819C45.3756 33.4605 45.3676 33.4259 45.3676 33.3779V29.3859C45.3676 29.3059 45.405 29.2659 45.4796 29.2659H46.1196C46.1836 29.2659 46.2156 29.3032 46.2156 29.3779V33.3539ZM46.2396 28.4179C46.2396 28.5299 46.1863 28.5859 46.0796 28.5859H45.4876C45.429 28.5859 45.389 28.5725 45.3676 28.5459C45.3516 28.5192 45.3436 28.4819 45.3436 28.4339V27.7059C45.3436 27.6152 45.3836 27.5699 45.4636 27.5699H46.1276C46.2023 27.5699 46.2396 27.6125 46.2396 27.6979V28.4179ZM50.3362 33.5059C50.2988 33.5059 50.2668 33.4952 50.2402 33.4739C50.2188 33.4525 50.2082 33.4205 50.2082 33.3779V33.0739C50.2082 33.0365 50.1975 33.0152 50.1762 33.0099C50.1548 33.0045 50.1308 33.0152 50.1042 33.0419C50.0348 33.1059 49.9468 33.1805 49.8402 33.2659C49.7335 33.3512 49.6002 33.4259 49.4402 33.4899C49.2802 33.5539 49.0908 33.5859 48.8722 33.5859C48.5415 33.5859 48.2428 33.5059 47.9762 33.3459C47.7148 33.1859 47.5068 32.9485 47.3522 32.6339C47.2028 32.3139 47.1282 31.9165 47.1282 31.4419C47.1282 30.9885 47.2082 30.5939 47.3682 30.2579C47.5282 29.9219 47.7468 29.6605 48.0242 29.4739C48.3015 29.2819 48.6135 29.1859 48.9602 29.1859C49.2108 29.1859 49.4215 29.2259 49.5922 29.3059C49.7682 29.3859 49.9255 29.4872 50.0642 29.6099C50.1068 29.6472 50.1388 29.6632 50.1602 29.6579C50.1815 29.6472 50.1922 29.6125 50.1922 29.5539V27.6899C50.1922 27.6099 50.2268 27.5699 50.2962 27.5699H50.9362C51.0055 27.5699 51.0402 27.6099 51.0402 27.6899V33.3699C51.0402 33.4179 51.0295 33.4525 51.0082 33.4739C50.9868 33.4952 50.9468 33.5059 50.8882 33.5059H50.3362ZM50.1922 30.2579C50.0375 30.1032 49.8828 29.9832 49.7282 29.8979C49.5735 29.8125 49.4002 29.7699 49.2082 29.7699C48.9735 29.7699 48.7628 29.8312 48.5762 29.9539C48.3948 30.0765 48.2508 30.2605 48.1442 30.5059C48.0428 30.7459 47.9922 31.0499 47.9922 31.4179C47.9922 31.7912 48.0455 32.0952 48.1522 32.3299C48.2588 32.5645 48.4002 32.7379 48.5762 32.8499C48.7575 32.9565 48.9548 33.0099 49.1682 33.0099C49.3602 33.0099 49.5335 32.9645 49.6882 32.8739C49.8428 32.7832 49.9655 32.6712 50.0562 32.5379C50.1468 32.3992 50.1922 32.2632 50.1922 32.1299V30.2579ZM52.8047 31.6819C52.8047 31.9219 52.8607 32.1405 52.9727 32.3379C53.09 32.5299 53.2447 32.6845 53.4367 32.8019C53.634 32.9139 53.8527 32.9699 54.0927 32.9699C54.338 32.9699 54.5567 32.9192 54.7487 32.8179C54.9407 32.7165 55.1167 32.5592 55.2767 32.3459C55.2927 32.3245 55.3087 32.3139 55.3247 32.3139C55.3407 32.3085 55.3647 32.3139 55.3967 32.3299L55.8047 32.5219C55.8633 32.5485 55.8687 32.5912 55.8207 32.6499C55.6713 32.8685 55.506 33.0472 55.3247 33.1859C55.1487 33.3245 54.9513 33.4259 54.7327 33.4899C54.514 33.5539 54.2713 33.5859 54.0047 33.5859C53.5993 33.5859 53.242 33.4952 52.9327 33.3139C52.6233 33.1325 52.378 32.8792 52.1967 32.5539C52.0207 32.2285 51.9327 31.8552 51.9327 31.4339C51.9327 30.9699 52.0233 30.5725 52.2047 30.2419C52.386 29.9059 52.6313 29.6472 52.9407 29.4659C53.2553 29.2792 53.6047 29.1859 53.9887 29.1859C54.3833 29.1859 54.7273 29.2739 55.0207 29.4499C55.3193 29.6205 55.5513 29.8685 55.7167 30.1939C55.882 30.5192 55.9647 30.9139 55.9647 31.3779C55.9647 31.4259 55.9593 31.4685 55.9487 31.5059C55.938 31.5379 55.9033 31.5539 55.8447 31.5539H52.8847C52.858 31.5539 52.8367 31.5672 52.8207 31.5939C52.81 31.6152 52.8047 31.6445 52.8047 31.6819ZM54.9887 31.0499C55.0473 31.0499 55.0847 31.0419 55.1007 31.0259C55.1167 31.0099 55.1247 30.9805 55.1247 30.9379C55.1247 30.7352 55.0793 30.5432 54.9887 30.3619C54.9033 30.1805 54.778 30.0339 54.6127 29.9219C54.4527 29.8099 54.2527 29.7539 54.0127 29.7539C53.762 29.7539 53.546 29.8152 53.3647 29.9379C53.1887 30.0552 53.0527 30.2125 52.9567 30.4099C52.866 30.6072 52.8207 30.8179 52.8207 31.0419L54.9887 31.0499ZM59.8049 33.5059C59.7676 33.5059 59.7356 33.4952 59.7089 33.4739C59.6876 33.4525 59.6769 33.4205 59.6769 33.3779V33.0739C59.6769 33.0365 59.6663 33.0152 59.6449 33.0099C59.6236 33.0045 59.5996 33.0152 59.5729 33.0419C59.5036 33.1059 59.4156 33.1805 59.3089 33.2659C59.2023 33.3512 59.0689 33.4259 58.9089 33.4899C58.7489 33.5539 58.5596 33.5859 58.3409 33.5859C58.0103 33.5859 57.7116 33.5059 57.4449 33.3459C57.1836 33.1859 56.9756 32.9485 56.8209 32.6339C56.6716 32.3139 56.5969 31.9165 56.5969 31.4419C56.5969 30.9885 56.6769 30.5939 56.8369 30.2579C56.9969 29.9219 57.2156 29.6605 57.4929 29.4739C57.7703 29.2819 58.0823 29.1859 58.4289 29.1859C58.6796 29.1859 58.8903 29.2259 59.0609 29.3059C59.2369 29.3859 59.3943 29.4872 59.5329 29.6099C59.5756 29.6472 59.6076 29.6632 59.6289 29.6579C59.6503 29.6472 59.6609 29.6125 59.6609 29.5539V27.6899C59.6609 27.6099 59.6956 27.5699 59.7649 27.5699H60.4049C60.4743 27.5699 60.5089 27.6099 60.5089 27.6899V33.3699C60.5089 33.4179 60.4983 33.4525 60.4769 33.4739C60.4556 33.4952 60.4156 33.5059 60.3569 33.5059H59.8049ZM59.6609 30.2579C59.5063 30.1032 59.3516 29.9832 59.1969 29.8979C59.0423 29.8125 58.8689 29.7699 58.6769 29.7699C58.4423 29.7699 58.2316 29.8312 58.0449 29.9539C57.8636 30.0765 57.7196 30.2605 57.6129 30.5059C57.5116 30.7459 57.4609 31.0499 57.4609 31.4179C57.4609 31.7912 57.5143 32.0952 57.6209 32.3299C57.7276 32.5645 57.8689 32.7379 58.0449 32.8499C58.2263 32.9565 58.4236 33.0099 58.6369 33.0099C58.8289 33.0099 59.0023 32.9645 59.1569 32.8739C59.3116 32.7832 59.4343 32.6712 59.5249 32.5379C59.6156 32.3992 59.6609 32.2632 59.6609 32.1299V30.2579ZM63.4647 33.5059C63.4114 33.5059 63.3741 33.4952 63.3527 33.4739C63.3314 33.4525 63.3207 33.4152 63.3207 33.3619V27.6899C63.3207 27.6099 63.3581 27.5699 63.4327 27.5699H64.0727C64.1367 27.5699 64.1687 27.6099 64.1687 27.6899V29.6259C64.1687 29.6792 64.1794 29.7085 64.2007 29.7139C64.2274 29.7192 64.2594 29.7059 64.2967 29.6739C64.3554 29.6152 64.4381 29.5485 64.5447 29.4739C64.6567 29.3992 64.7927 29.3325 64.9527 29.2739C65.1181 29.2152 65.3074 29.1859 65.5207 29.1859C65.9047 29.1859 66.2221 29.2819 66.4727 29.4739C66.7234 29.6605 66.9101 29.9165 67.0327 30.2419C67.1607 30.5672 67.2247 30.9405 67.2247 31.3619C67.2247 32.0445 67.0647 32.5859 66.7447 32.9859C66.4301 33.3859 65.9821 33.5859 65.4007 33.5859C65.1714 33.5859 64.9714 33.5512 64.8007 33.4819C64.6301 33.4125 64.4887 33.3272 64.3767 33.2259C64.2647 33.1245 64.1767 33.0339 64.1127 32.9539C64.0914 32.9272 64.0701 32.9165 64.0487 32.9219C64.0327 32.9219 64.0247 32.9405 64.0247 32.9779L63.9607 33.3699C63.9447 33.4605 63.8914 33.5059 63.8007 33.5059H63.4647ZM64.1687 32.0659C64.1687 32.2472 64.2167 32.4099 64.3127 32.5539C64.4141 32.6979 64.5421 32.8125 64.6967 32.8979C64.8567 32.9779 65.0274 33.0179 65.2087 33.0179C65.4274 33.0179 65.6221 32.9619 65.7927 32.8499C65.9687 32.7379 66.1047 32.5619 66.2007 32.3219C66.3021 32.0765 66.3527 31.7619 66.3527 31.3779C66.3527 30.8499 66.2594 30.4499 66.0727 30.1779C65.8861 29.9059 65.6114 29.7699 65.2487 29.7699C65.0301 29.7699 64.8274 29.8205 64.6407 29.9219C64.4541 30.0232 64.2967 30.1512 64.1687 30.3059V32.0659ZM68.2337 34.8259C68.0737 34.8259 67.9511 34.8205 67.8657 34.8099C67.7857 34.7992 67.7457 34.7645 67.7457 34.7059V34.2979C67.7457 34.2659 67.7591 34.2392 67.7857 34.2179C67.8177 34.1965 67.8791 34.1859 67.9697 34.1859H68.4897C68.6017 34.1859 68.7031 34.1512 68.7937 34.0819C68.8897 34.0179 68.9671 33.9352 69.0257 33.8339C69.0844 33.7325 69.1217 33.6259 69.1377 33.5139C69.1591 33.4072 69.1537 33.3112 69.1217 33.2259L67.5937 29.4179C67.5777 29.3805 67.5777 29.3459 67.5937 29.3139C67.6097 29.2819 67.6444 29.2659 67.6977 29.2659H68.3537C68.3857 29.2659 68.4151 29.2765 68.4417 29.2979C68.4684 29.3139 68.4844 29.3379 68.4897 29.3699L69.5937 32.2499C69.6097 32.2979 69.6311 32.3219 69.6577 32.3219C69.6844 32.3219 69.7084 32.2899 69.7297 32.2259L70.8177 29.3619C70.8284 29.3352 70.8444 29.3139 70.8657 29.2979C70.8871 29.2765 70.9137 29.2659 70.9457 29.2659H71.4177C71.4604 29.2659 71.4897 29.2819 71.5057 29.3139C71.5271 29.3405 71.5271 29.3699 71.5057 29.4019L69.7857 33.7619C69.7004 33.9805 69.6071 34.1592 69.5057 34.2979C69.4044 34.4365 69.2924 34.5432 69.1697 34.6179C69.0471 34.6979 68.9084 34.7512 68.7537 34.7779C68.6044 34.8099 68.4311 34.8259 68.2337 34.8259ZM73.8732 33.5059C73.8305 33.5059 73.7985 33.4979 73.7772 33.4819C73.7612 33.4659 73.7532 33.4365 73.7532 33.3939V33.1699C73.7532 33.1219 73.7585 33.0845 73.7692 33.0579C73.7852 33.0259 73.8145 32.9805 73.8572 32.9219L76.8492 28.3859C76.8812 28.3325 76.8652 28.3059 76.8012 28.3059H74.0172C73.9745 28.3059 73.9452 28.2979 73.9292 28.2819C73.9185 28.2605 73.9132 28.2312 73.9132 28.1939V27.6659C73.9132 27.6019 73.9398 27.5699 73.9932 27.5699H78.1292C78.1878 27.5699 78.2172 27.6019 78.2172 27.6659V27.9139C78.2172 27.9512 78.2118 27.9832 78.2012 28.0099C78.1905 28.0312 78.1692 28.0632 78.1372 28.1059L75.0892 32.6899C75.0732 32.7165 75.0705 32.7379 75.0812 32.7539C75.0972 32.7645 75.1158 32.7699 75.1372 32.7699H78.0972C78.1665 32.7699 78.2012 32.7992 78.2012 32.8579V33.4019C78.2012 33.4285 78.1932 33.4525 78.1772 33.4739C78.1612 33.4952 78.1318 33.5059 78.0892 33.5059H73.8732ZM79.9969 33.3539C79.9969 33.4125 79.9835 33.4525 79.9569 33.4739C79.9355 33.4952 79.8955 33.5059 79.8369 33.5059H79.2929C79.2342 33.5059 79.1942 33.4979 79.1729 33.4819C79.1569 33.4605 79.1489 33.4259 79.1489 33.3779V29.3859C79.1489 29.3059 79.1862 29.2659 79.2609 29.2659H79.9009C79.9649 29.2659 79.9969 29.3032 79.9969 29.3779V33.3539ZM80.0209 28.4179C80.0209 28.5299 79.9675 28.5859 79.8609 28.5859H79.2689C79.2102 28.5859 79.1702 28.5725 79.1489 28.5459C79.1329 28.5192 79.1249 28.4819 79.1249 28.4339V27.7059C79.1249 27.6152 79.1649 27.5699 79.2449 27.5699H79.9089C79.9835 27.5699 80.0209 27.6125 80.0209 27.6979V28.4179ZM81.9814 33.3539C81.9814 33.4125 81.9681 33.4525 81.9414 33.4739C81.9201 33.4952 81.8774 33.5059 81.8134 33.5059H81.2694C81.1734 33.5059 81.1254 33.4632 81.1254 33.3779L81.1414 27.6899C81.1414 27.6099 81.1761 27.5699 81.2454 27.5699H81.8774C81.9468 27.5699 81.9814 27.6099 81.9814 27.6899V33.3539ZM83.9658 33.3539C83.9658 33.4125 83.9525 33.4525 83.9258 33.4739C83.9045 33.4952 83.8618 33.5059 83.7978 33.5059H83.2538C83.1578 33.5059 83.1098 33.4632 83.1098 33.3779L83.1258 27.6899C83.1258 27.6099 83.1605 27.5699 83.2298 27.5699H83.8618C83.9311 27.5699 83.9658 27.6099 83.9658 27.6899V33.3539ZM86.9262 33.5859C86.5155 33.5859 86.1555 33.4952 85.8462 33.3139C85.5368 33.1272 85.2968 32.8712 85.1262 32.5459C84.9555 32.2152 84.8702 31.8365 84.8702 31.4099C84.8702 30.9672 84.9582 30.5805 85.1342 30.2499C85.3102 29.9139 85.5528 29.6525 85.8622 29.4659C86.1768 29.2792 86.5342 29.1859 86.9342 29.1859C87.3502 29.1859 87.7102 29.2819 88.0142 29.4739C88.3235 29.6605 88.5635 29.9219 88.7342 30.2579C88.9048 30.5885 88.9902 30.9699 88.9902 31.4019C88.9902 31.8285 88.9022 32.2072 88.7262 32.5379C88.5555 32.8632 88.3155 33.1192 88.0062 33.3059C87.6968 33.4925 87.3368 33.5859 86.9262 33.5859ZM86.9422 32.9859C87.1928 32.9859 87.4062 32.9219 87.5822 32.7939C87.7582 32.6659 87.8915 32.4845 87.9822 32.2499C88.0782 32.0099 88.1262 31.7219 88.1262 31.3859C88.1262 31.0499 88.0782 30.7619 87.9822 30.5219C87.8915 30.2819 87.7555 30.0979 87.5742 29.9699C87.3982 29.8365 87.1848 29.7699 86.9342 29.7699C86.6835 29.7699 86.4675 29.8365 86.2862 29.9699C86.1102 30.0979 85.9742 30.2819 85.8782 30.5219C85.7822 30.7619 85.7342 31.0499 85.7342 31.3859C85.7342 31.7219 85.7822 32.0099 85.8782 32.2499C85.9742 32.4845 86.1102 32.6659 86.2862 32.7939C86.4675 32.9219 86.6862 32.9859 86.9422 32.9859ZM95.2476 29.2659C95.2902 29.2659 95.3196 29.2792 95.3356 29.3059C95.3516 29.3325 95.3516 29.3645 95.3356 29.4019L94.0876 33.3939C94.0769 33.4365 94.0582 33.4659 94.0316 33.4819C94.0102 33.4979 93.9756 33.5059 93.9276 33.5059H93.4636C93.3676 33.5059 93.3062 33.4659 93.2796 33.3859L92.4156 30.6419C92.3942 30.5939 92.3729 30.5699 92.3516 30.5699C92.3356 30.5699 92.3222 30.5939 92.3116 30.6419L91.4716 33.3939C91.4609 33.4365 91.4422 33.4659 91.4156 33.4819C91.3942 33.4979 91.3622 33.5059 91.3196 33.5059H90.8236C90.7276 33.5059 90.6689 33.4659 90.6476 33.3859L89.3756 29.4099C89.3649 29.3672 89.3676 29.3325 89.3836 29.3059C89.3996 29.2792 89.4289 29.2659 89.4716 29.2659H90.0956C90.1276 29.2659 90.1569 29.2765 90.1836 29.2979C90.2102 29.3139 90.2289 29.3379 90.2396 29.3699L91.1196 32.2179C91.1302 32.2659 91.1462 32.2899 91.1676 32.2899C91.1942 32.2899 91.2156 32.2632 91.2316 32.2099L92.0956 29.3619C92.1062 29.3299 92.1222 29.3059 92.1436 29.2899C92.1649 29.2739 92.1942 29.2659 92.2316 29.2659H92.6956C92.7276 29.2659 92.7569 29.2765 92.7836 29.2979C92.8102 29.3139 92.8262 29.3379 92.8316 29.3699L93.7276 32.2179C93.7436 32.2659 93.7622 32.2899 93.7836 32.2899C93.8049 32.2899 93.8236 32.2632 93.8396 32.2099L94.6876 29.3619C94.7036 29.3352 94.7222 29.3139 94.7436 29.2979C94.7702 29.2765 94.8022 29.2659 94.8396 29.2659H95.2476Z" fill="#256DF6"/>
<g clip-path="url(#clip0_2639_4683)">
<path fill-rule="evenodd" clip-rule="evenodd" d="M13.0855 6.33613C13.18 6.31137 13.2231 6.34714 13.279 6.41317C13.6001 6.79466 14.635 8.12439 14.9167 8.48846C14.9269 8.50135 14.9345 8.51619 14.9388 8.53209C14.9431 8.54799 14.9442 8.5646 14.9418 8.58091C14.9395 8.59723 14.9339 8.61289 14.9253 8.62696C14.9167 8.64102 14.9053 8.65318 14.8919 8.6627C12.8057 10.3803 10.4846 12.8096 9.19098 14.5502C9.16345 14.5869 9.18639 14.5896 9.20474 14.5814C11.4579 13.5579 16.7497 11.9247 19.1368 11.467V8.2812L9.80657 0.5L0.457031 8.2812V11.7633C3.3552 9.94657 10.0506 7.13397 13.0846 6.33613H13.0855ZM56.4616 1.58304H60.5671V22.0627H56.4616V1.58304ZM53.4203 1.58304H49.3148V22.0636H53.4203V1.58304ZM80.68 8.6627H76.624L80.7313 22.0654H84.5084L85.5396 18.6769C85.9488 17.3307 86.6313 14.817 86.6313 14.817C86.633 14.8103 86.6369 14.8042 86.6423 14.7999C86.6478 14.7956 86.6546 14.7932 86.6616 14.7932C86.6754 14.7932 86.6873 14.8024 86.6919 14.817C86.6919 14.817 87.3754 17.3793 87.7635 18.6999L88.7754 22.0627H92.4855L96.5634 8.66178H92.7937L91.6176 12.7161C91.2586 14.0012 90.9096 15.2891 90.5708 16.5796C90.5691 16.5864 90.5653 16.5925 90.5598 16.5968C90.5543 16.6011 90.5475 16.6035 90.5405 16.6035C90.5335 16.6035 90.5267 16.6011 90.5212 16.5968C90.5158 16.5925 90.5119 16.5864 90.5102 16.5796C90.5102 16.5796 89.8772 14.1054 89.4671 12.7161L88.2561 8.6627H85.2598L84.0267 12.7161C83.6405 14.0128 82.9625 16.5815 82.9625 16.5815C82.9604 16.5877 82.9563 16.5932 82.9508 16.597C82.9454 16.6008 82.9389 16.6027 82.9323 16.6026C82.9258 16.6025 82.9195 16.6005 82.9142 16.5967C82.9089 16.5929 82.905 16.5876 82.9029 16.5815C82.9029 16.5815 82.2478 14.0596 81.8552 12.7161L80.68 8.6627ZM62.5992 15.4085C62.5992 11.3368 65.7121 8.32064 69.5203 8.32064C73.291 8.32064 76.4047 11.3377 76.4047 15.4085C76.4047 19.4922 73.2928 22.5093 69.5203 22.5093C65.713 22.5093 62.5992 19.4922 62.5992 15.4113V15.4085ZM72.4653 15.4085C72.4653 13.4149 71.1167 12.0576 69.5203 12.0576C67.8864 12.0576 66.5387 13.4149 66.5387 15.4085C66.5387 17.416 67.8864 18.7595 69.5203 18.7595C71.1167 18.7595 72.4653 17.416 72.4653 15.4085ZM25.5662 3.47767V7.42651H32.8222C32.8515 7.42651 32.8625 7.45586 32.8479 7.48153L25.5634 20.5422L25.5506 20.5661C25.3855 20.8852 25.346 20.9622 25.346 21.2933V22.0636H39.48V18.1221H31.6286C31.6224 18.1221 31.6163 18.1203 31.611 18.1168C31.6058 18.1134 31.6017 18.1086 31.5992 18.1029C31.5965 18.097 31.5953 18.0905 31.596 18.084C31.5966 18.0775 31.599 18.0714 31.6029 18.0662L38.9717 4.834L38.9919 4.79181C39.0433 4.68177 39.0928 4.57906 39.0928 4.30394L39.0946 3.47859H25.5662V3.47767ZM44.1469 1.94986C45.4268 1.94986 46.4846 3.03932 46.4846 4.38097C46.4846 5.72354 45.4268 6.81483 44.1469 6.81483C42.8671 6.81483 41.8102 5.72537 41.8102 4.38281C41.8102 3.04024 42.8671 1.95078 44.1469 1.95078V1.94986ZM42.0946 8.6627H46.1992V22.0636H42.0946V8.6627ZM5.29281 19.6866C5.34327 19.749 5.43043 19.7618 5.49465 19.7178C8.9607 17.8342 16.5855 15.4434 19.1368 14.9858V22.1443H0.457949V14.707C2.37813 13.5607 7.56529 11.2094 9.39097 10.5803C9.42767 10.5674 9.43593 10.5894 9.40474 10.6142C7.65244 11.987 4.90565 15.227 3.55978 17.3096C3.49832 17.4068 3.50199 17.438 3.55061 17.4976L5.29281 19.6866ZM98.6919 6.0977C99.0469 6.0977 99.3001 6.36731 99.3001 6.75247C99.3001 7.0441 99.1506 7.27428 98.9231 7.36507L99.2726 7.97032H98.9405L98.6157 7.40725H98.3295V7.96849H98.0378V6.0977H98.6919ZM98.3295 7.13214H98.6735C98.8671 7.13214 99.0093 6.9744 99.0093 6.75523C99.0093 6.53513 98.8671 6.37465 98.6745 6.37465H98.3295V7.13214ZM98.6038 5.44842C97.9836 5.44842 97.4249 5.84276 97.1882 6.44618C97.0716 6.74122 97.041 7.06322 97.0997 7.37496C97.1585 7.68669 97.3043 7.97544 97.5203 8.20784C97.7279 8.43216 98.0001 8.58638 98.2993 8.64915C98.5985 8.71192 98.9098 8.68012 99.1901 8.55815C99.7625 8.3078 100.136 7.71813 100.136 7.06427C100.135 6.17198 99.4497 5.44934 98.6038 5.44842ZM98.6038 8.37016C98.1029 8.37016 97.6515 8.05194 97.4598 7.56407C97.3657 7.32572 97.3409 7.06562 97.3883 6.8138C97.4357 6.56197 97.5533 6.32866 97.7277 6.1408C98.0818 5.76664 98.6148 5.65476 99.0772 5.85743C99.5396 6.05918 99.8414 6.53605 99.8414 7.06427C99.8405 7.78508 99.2873 8.36924 98.6038 8.37016Z" fill="#256DF6"/>
</g>
<rect x="0.151367" y="28.5039" width="19.6643" height="3.99836" fill="#256DF6"/>
<defs>
<clipPath id="clip0_2639_4683">
<rect width="100" height="22.0093" fill="white" transform="translate(0.151367 0.5)"/>
</clipPath>
</defs>
</svg>
