<svg width="80" height="18" viewBox="0 0 80 18" fill="none" xmlns="http://www.w3.org/2000/svg">
<path fill-rule="evenodd" clip-rule="evenodd" d="M10.3469 4.86422C10.4225 4.84441 10.457 4.87302 10.5018 4.92584C10.7586 5.23104 11.5865 6.29482 11.8118 6.58608C11.8201 6.59639 11.8261 6.60826 11.8295 6.62098C11.833 6.6337 11.8338 6.64699 11.832 6.66004C11.8301 6.67309 11.8256 6.68563 11.8188 6.69688C11.8119 6.70813 11.8028 6.71786 11.792 6.72547C10.123 8.09958 8.26616 10.043 7.23129 11.4355C7.20928 11.4648 7.22762 11.467 7.2423 11.4604C9.04487 10.6417 13.2783 9.33504 15.188 8.96895V6.42027L7.72377 0.195312L0.244141 6.42027V9.20592C2.56267 7.75257 7.919 5.50249 10.3462 4.86422H10.3469ZM45.0478 1.06174H48.3322V17.4455H45.0478V1.06174ZM42.6148 1.06174H39.3304V17.4462H42.6148V1.06174ZM64.4225 6.72547H61.1777L64.4636 17.4477H67.4852L68.3102 14.7369C68.6375 13.6599 69.1836 11.6489 69.1836 11.6489C69.1849 11.6435 69.188 11.6387 69.1924 11.6352C69.1968 11.6318 69.2022 11.6299 69.2078 11.6299C69.2188 11.6299 69.2283 11.6372 69.232 11.6489C69.232 11.6489 69.7788 13.6987 70.0893 14.7552L70.8988 17.4455H73.8669L77.1292 6.72474H74.1135L73.1726 9.96817C72.8853 10.9962 72.6062 12.0266 72.3351 13.059C72.3338 13.0644 72.3307 13.0693 72.3263 13.0727C72.3219 13.0762 72.3165 13.0781 72.3109 13.0781C72.3053 13.0781 72.2999 13.0762 72.2955 13.0727C72.2911 13.0693 72.288 13.0644 72.2867 13.059C72.2867 13.059 71.7803 11.0796 71.4522 9.96817L70.4834 6.72547H68.0863L67.0999 9.96817C66.7909 11.0055 66.2485 13.0605 66.2485 13.0605C66.2468 13.0655 66.2435 13.0698 66.2392 13.0729C66.2348 13.0759 66.2296 13.0775 66.2243 13.0774C66.2191 13.0773 66.2141 13.0757 66.2099 13.0727C66.2057 13.0696 66.2025 13.0654 66.2008 13.0605C66.2008 13.0605 65.6768 11.043 65.3626 9.96817L64.4225 6.72547ZM49.9579 12.1221C49.9579 8.86477 52.4482 6.45182 55.4948 6.45182C58.5113 6.45182 61.0023 8.86551 61.0023 12.1221C61.0023 15.3891 58.5127 17.8027 55.4948 17.8027C52.4489 17.8027 49.9579 15.3891 49.9579 12.1243V12.1221ZM57.8507 12.1221C57.8507 10.5272 56.7718 9.44142 55.4948 9.44142C54.1876 9.44142 53.1094 10.5272 53.1094 12.1221C53.1094 13.7281 54.1876 14.8029 55.4948 14.8029C56.7718 14.8029 57.8507 13.7281 57.8507 12.1221ZM20.3315 2.57745V5.73652H26.1362C26.1597 5.73652 26.1685 5.76 26.1568 5.78054L20.3293 16.2291L20.319 16.2482C20.1869 16.5035 20.1553 16.5651 20.1553 16.8299V17.4462H31.4625V14.293H25.1814C25.1764 14.293 25.1715 14.2915 25.1673 14.2888C25.1632 14.2861 25.1599 14.2822 25.1579 14.2776C25.1557 14.2729 25.1548 14.2677 25.1553 14.2625C25.1558 14.2573 25.1577 14.2524 25.1608 14.2482L31.0559 3.66251L31.072 3.62876C31.1131 3.54072 31.1528 3.45856 31.1528 3.23846L31.1542 2.57819H20.3315V2.57745ZM35.1961 1.3552C36.2199 1.3552 37.0661 2.22677 37.0661 3.30009C37.0661 4.37414 36.2199 5.24718 35.1961 5.24718C34.1722 5.24718 33.3267 4.37561 33.3267 3.30156C33.3267 2.2275 34.1722 1.35594 35.1961 1.35594V1.3552ZM33.5542 6.72547H36.8379V17.4462H33.5542V6.72547ZM4.11276 15.5446C4.15313 15.5945 4.22285 15.6048 4.27423 15.5695C7.04707 14.0626 13.1469 12.15 15.188 11.7839V17.5108H0.244875V11.5609C1.78102 10.6439 5.93074 8.7628 7.39129 8.25952C7.42065 8.24925 7.42726 8.26685 7.4023 8.28666C6.00047 9.38493 3.80304 11.9769 2.72634 13.643C2.67717 13.7208 2.6801 13.7457 2.719 13.7934L4.11276 15.5446ZM78.832 4.67347C79.116 4.67347 79.3186 4.88916 79.3186 5.19729C79.3186 5.43059 79.199 5.61473 79.017 5.68737L79.2966 6.17157H79.0309L78.7711 5.72111H78.5421V6.1701H78.3087V4.67347H78.832ZM78.5421 5.50102H78.8173C78.9722 5.50102 79.0859 5.37483 79.0859 5.19949C79.0859 5.02342 78.9722 4.89503 78.8181 4.89503H78.5421V5.50102ZM78.7616 4.15405C78.2654 4.15405 77.8184 4.46952 77.6291 4.95225C77.5358 5.18829 77.5113 5.44589 77.5583 5.69528C77.6053 5.94467 77.722 6.17567 77.8948 6.36158C78.0608 6.54104 78.2786 6.66442 78.5179 6.71463C78.7573 6.76485 79.0063 6.7394 79.2305 6.64183C79.6885 6.44155 79.9872 5.96982 79.9872 5.44673C79.9865 4.7329 79.4382 4.15478 78.7616 4.15405ZM78.7616 6.49144C78.3608 6.49144 77.9997 6.23686 77.8463 5.84657C77.771 5.65588 77.7512 5.44781 77.7891 5.24635C77.827 5.04488 77.9212 4.85824 78.0606 4.70795C78.3439 4.40863 78.7704 4.31912 79.1403 4.48126C79.5102 4.64266 79.7516 5.02415 79.7516 5.44673C79.7509 6.02337 79.3083 6.4907 78.7616 6.49144Z" fill="#256DF6"/>
</svg>
